<ttFont>
<head>
    <!-- Most of this table will be recalculated by the compiler -->
    <tableVersion value="1.0"/>
    <fontRevision value="1.002"/>
    <checkSumAdjustment value="0x34763bbb"/>
    <magicNumber value="0x5f0f3cf5"/>
    <flags value="00000000 00101011"/>
    <unitsPerEm value="860"/>
    <created value="Wed Feb  1 14:42:49 2017"/>
    <modified value="Wed Mar  1 23:22:58 2017"/>
    <xMin value="0"/>
    <yMin value="-248"/>
    <xMax value="725"/>
    <yMax value="721"/>
    <macStyle value="00000000 00000000"/>
    <lowestRecPPEM value="8"/>
    <fontDirectionHint value="2"/>
    <indexToLocFormat value="0"/>
    <glyphDataFormat value="0"/>
  </head>
          <CharString index="0">
            -22.4111328125 -18.1884765625 -18.560546875 -22.8681640625 hvcurveto
            -0.0009765625 vlineto
            -22.8681640625 18.189453125 -18.5595703125 22.41015625 22.41015625 18.189453125 18.5595703125 22.8681640625 vhcurveto
            0.0009765625 vlineto
            22.8681640625 -18.1884765625 18.560546875 -22.4111328125 vhcurveto
            return
          </CharString>
          <CharString index="1">
            -414.286132812 81.19921875 414.286132812 vlineto
            return
          </CharString>
          <CharString index="2">
            -81.2001953125 -165.713867188 81.2001953125 hlineto
            return
          </CharString>
          <CharString index="3">
            -81.19921875 -165.713867188 81.19921875 hlineto
            return
          </CharString>
          <CharString index="4">
            -165.712890625 -165.689453125 -82.857421875 165.689453125 -165.71484375 81.19921875 165.71484375 159.111328125 82.857421875 -159.111328125 165.712890625 vlineto
            return
          </CharString>
          <CharString index="5">
            -406 -82.857421875 406 hlineto
            return
          </CharString>
          <CharString index="6">
            -22.41015625 -18.189453125 -18.560546875 -22.8681640625 hvcurveto
            -0.0009765625 vlineto
            0.0009765625 -22.8681640625 18.1884765625 -18.5595703125 22.41015625 0 rrcurveto
            22.4111328125 18.1884765625 18.5595703125 22.8681640625 hvcurveto
            0.0009765625 vlineto
            22.8681640625 -18.1884765625 18.560546875 -22.4111328125 vhcurveto
            return
          </CharString>
          <CharString index="7">
            -385.69921875 -158.31640625 0 -82.857421875 101.5 41.640625 0 -380.466796875 406 0 0 580 rlineto
            return
          </CharString>
          <CharString index="8">
            -96.18359375 -549.619140625 487.19921875 0 rlineto
            return
          </CharString>
          <CharString index="9">
            -30.380859375 121.80078125 143.619140625 -121.80078125 vlineto
            return
          </CharString>
          <CharString index="10">
            -30.380859375 -66.69921875 vlineto
            81.68359375 466.76171875 rlineto
            return
          </CharString>
          <CharString index="11">
            -82.857421875 188.5 vlineto
            -87 -497.142578125 406 0 101.5 580 rlineto
            return
          </CharString>
          <CharString index="12">
            -22.4111328125 -18.1884765625 -18.560546875 -22.8681640625 hvcurveto
            -0.0009765625 vlineto
            -22.8681640625 18.1884765625 -18.5595703125 22.4111328125 vhcurveto
            22.41015625 0 18.1884765625 18.5595703125 0.0009765625 22.8681640625 rrcurveto
            0.0009765625 vlineto
            22.8681640625 -18.189453125 18.560546875 -22.41015625 vhcurveto
            return
          </CharString>
          <CharString index="13">
            -406 -82.8564453125 406 hlineto
            return
          </CharString>
          <CharString index="14">
            -101.5 -580 81.19921875 0 5.31640625 30.380859375 111.16796875 0 5.31640625 -30.380859375 406 0 -101.5 580 rlineto
            return
          </CharString>
          <CharString index="15">
            41.083984375 -234.763671875 -82.16796875 0 rlineto
            return
          </CharString>
          <CharString index="16">
            -580 406 vlineto
            112.114257812 90.8857421875 74.193359375 91.521484375 hvcurveto
            -0.0478515625 57.931640625 -22.2802734375 53.69140625 -36.43359375 29.982421875 rrcurveto
            return
          </CharString>
          <CharString index="17">
            24.2041015625 29.443359375 13.935546875 42.943359375 0.0185546875 45.205078125 -0.0009765625 85.6533203125 -81.662109375 69.4345703125 -100.733398438 0 rrcurveto
            return
          </CharString>
          <CharString index="18">
            44.8447265625 0 36.353515625 -32.578125 0.0009765625 -40.1875 rrcurveto
            -40.1884765625 -36.353515625 -32.5791015625 -44.845703125 vhcurveto
            return
          </CharString>
          <CharString index="19">
            44.845703125 36.353515625 -37.0966796875 -45.7607421875 hvcurveto
            0 -45.7607421875 -36.353515625 -37.095703125 -44.845703125 -0.0009765625 rrcurveto
            return
          </CharString>
          <CharString index="20">
            -89.69140625 -72.708984375 -117.6484375 -145.126953125 hvcurveto
            -87.591796875 vlineto
            -0.0009765625 -145.127929688 90.88671875 -117.649414062 112.114257812 0 rrcurveto
            203 0.001953125 hlineto
            105.532226562 0 86.7119140625 104.245117188 9.818359375 133.278320312 rrcurveto
            -152.662109375 hlineto
            -13.6865234375 -20.78125 -17.125 -12.361328125 -18.5888671875 0 rrcurveto
            321.16796875 vlineto
            20.4013671875 0 18.6416015625 -14.8837890625 14.263671875 -24.5712890625 rrcurveto
            126.375 hlineto
            -28.44140625 76.142578125 -51.64453125 50.90625 -58.99609375 0 rrcurveto
            return
          </CharString>
          <CharString index="21">
            -580 406 vlineto
            112.114257812 90.8857421875 111.290039062 137.282226562 hvcurveto
            82.857421875 vlineto
            137.282226562 -72.708984375 111.288085938 -89.69140625 vhcurveto
            return
          </CharString>
          <CharString index="22">
            44.8447265625 -0.0009765625 36.3544921875 -68.009765625 0 -83.8935546875 0 -83.8935546875 -36.3544921875 -68.009765625 -44.8447265625 -0.0009765625 rrcurveto
            return
          </CharString>
          <CharString index="23">
            -580 609 82.857421875 -203 248.5703125 81.19921875 82.857421875 -81.19921875 82.857421875 203 82.857421875 vlineto
            return
          </CharString>
          <CharString index="24">
            -580 406 331.427734375 81.19921875 82.857421875 -81.19921875 82.857421875 203 82.857421875 vlineto
            return
          </CharString>
          <CharString index="25">
            -89.69140625 -72.708984375 -117.6484375 -145.126953125 hvcurveto
            -85.224609375 vlineto
            -137.282226562 90.8857421875 -111.290039062 112.114257812 vhcurveto
            406 303.810546875 -156.30859375 -82.857421875 hlineto
            -13.2080078125 -17.3974609375 -16.1025390625 -10.2216796875 -17.380859375 0 rrcurveto
            315.64453125 vlineto
            20.4013671875 0 18.6416015625 -14.8837890625 14.263671875 -24.5712890625 rrcurveto
            126.375 hlineto
            -28.44140625 76.142578125 -51.64453125 50.90625 -58.99609375 0 rrcurveto
            return
          </CharString>
          <CharString index="26">
            -580 406 331.427734375 81.19921875 -331.427734375 121.80078125 580 -121.80078125 -165.71484375 -81.19921875 165.71484375 vlineto
            return
          </CharString>
          <CharString index="27">
            -580 406 580 vlineto
            return
          </CharString>
          <CharString index="28">
            -419.80859375 vlineto
            -67.2529296875 0.0009765625 -54.525390625 39.552734375 -0.0205078125 48.7998046875 rrcurveto
            0.02734375 -81.201171875 vlineto
            0 -146.190429688 118.0859375 -118.549804688 145.814453125 -0.39453125 rrcurveto
            -0.009765625 81.19921875 vlineto
            146.150390625 118.478515625 118.709960938 146.434570312 hvcurveto
            -0.728515625 331.427734375 hlineto
            return
          </CharString>
          <CharString index="29">
            -580 406 193.333984375 vlineto
            33.83203125 -193.333984375 169.16796875 0 -81.19921875 464 81.19921875 33.142578125 0 82.857421875 -81.19921875 0 -121.80078125 -49.71484375 0 49.71484375 rlineto
            return
          </CharString>
          <CharString index="30">
            -580 609 82.857421875 -203 497.142578125 vlineto
            return
          </CharString>
          <CharString index="31">
            -580 406 497.142578125 vlineto
            40.599609375 -16.6640625 40.599609375 16.6640625 0 -497.142578125 121.80078125 0 0 580 -121.80078125 0 -40.599609375 -16.666015625 -40.599609375 16.666015625 rlineto
            return
          </CharString>
          <CharString index="32">
            -580 406 497.142578125 vlineto
            81.19921875 -33.330078125 0 -463.8125 121.80078125 0 0 580 -121.80078125 0 0 -33.330078125 -81.19921875 33.330078125 rlineto
            return
          </CharString>
          <CharString index="33">
            -89.69140625 -72.708984375 -117.6484375 -145.126953125 hvcurveto
            -87.591796875 vlineto
            -0.0009765625 -145.127929688 90.88671875 -117.649414062 112.114257812 0 rrcurveto
            203 0.001953125 hlineto
            112.114257812 90.8857421875 117.6484375 145.126953125 hvcurveto
            87.591796875 vlineto
            145.126953125 -72.708984375 117.6484375 -89.69140625 vhcurveto
            return
          </CharString>
          <CharString index="34">
            44.8447265625 -0.0009765625 36.3544921875 -71.8955078125 0 -88.6875 0 -88.6875 -36.3544921875 -71.8955078125 -44.8447265625 -0.0009765625 rrcurveto
            return
          </CharString>
          <CharString index="35">
            -580 406 82.857421875 vlineto
            112.11328125 0 90.8857421875 111.288085938 0.0009765625 137.282226562 rrcurveto
            137.283203125 -72.708984375 111.2890625 -89.69140625 vhcurveto
            return
          </CharString>
          <CharString index="36">
            44.845703125 0.0009765625 36.35546875 -37.0966796875 0 -45.76171875 0 -45.76171875 -36.35546875 -37.0966796875 -44.845703125 0.0009765625 rrcurveto
            return
          </CharString>
          <CharString index="37">
            -89.69140625 -72.708984375 -111.288085938 -137.282226562 hvcurveto
            -99.4287109375 vlineto
            -137.282226562 90.8857421875 -111.290039062 112.114257812 vhcurveto
            203 hlineto
            26.2392578125 0.0498046875 25.982421875 6.27734375 24.2880859375 12.1591796875 rrcurveto
            45.291015625 -18.486328125 81.19921875 0 0 82.857421875 -40.798828125 16.65234375 rlineto
            26.4111328125 42.974609375 14.31640625 52.3037109375 0.0712890625 53.7841796875 rrcurveto
            99.4287109375 vlineto
            137.282226562 -72.708984375 111.288085938 -89.69140625 vhcurveto
            return
          </CharString>
          <CharString index="38">
            44.8447265625 -0.0009765625 36.3544921875 -68.009765625 0 -83.8935546875 0 -83.8935546875 -36.3544921875 -84.5810546875 -44.8447265625 -0.0009765625 rrcurveto
            return
          </CharString>
          <CharString index="39">
            -580 406 96.666015625 vlineto
            81.19921875 -96.666015625 121.80078125 0 -99.23828125 118.140625 rlineto
            61.44140625 44.7412109375 37.6943359375 81.0146484375 0.1025390625 87.533203125 rrcurveto
            137.282226562 -72.7099609375 111.288085938 -89.6904296875 vhcurveto
            return
          </CharString>
          <CharString index="40">
            44.845703125 36.353515625 -37.0966796875 -45.7607421875 -45.7607421875 -36.353515625 -37.0966796875 -44.845703125 hvcurveto
            return
          </CharString>
          <CharString index="41">
            -82.857421875 101.5 -497.142578125 406 497.142578125 101.5 82.857421875 vlineto
            return
          </CharString>
          <CharString index="42">
            -340.505859375 vlineto
            0.0009765625 -141.34765625 118.227539062 -114.716796875 145.671875 0 rrcurveto
            81.19921875 0 0.0009765625 0 rlineto
            145.671875 0 118.2265625 114.541015625 0.0009765625 141.130859375 rrcurveto
            0 0.0009765625 0 0.0009765625 0 340.896484375 -121.798828125 0 0 -298.28515625 rlineto
            -47.0439453125 -36.3779296875 -38.1806640625 -44.822265625 vhcurveto
            -0.0009765625 42.61328125 hlineto
            0 42.611328125 0 298.28515625 -203 0 rlineto
            return
          </CharString>
          <CharString index="43">
            101.5 -580 406 0 101.5 580 -81.19921875 0 -60.900390625 -348.001953125 -60.900390625 348.001953125 rlineto
            return
          </CharString>
          <CharString index="44">
            101.5 -580 406 0 17.400390625 99.4296875 17.400390625 -99.4296875 81.19921875 0 101.5 580 -81.19921875 0 -60.900390625 -348.001953125 -17.400390625 99.4296875 -81.19921875 0 -17.400390625 -99.4296875 -60.900390625 348.001953125 rlineto
            return
          </CharString>
          <CharString index="45">
            101.57421875 -290.21484375 -101.57421875 -289.78515625 81.19921875 0 60.9453125 173.873046875 60.85546875 -173.873046875 406 0 -101.57421875 290.21484375 101.57421875 289.78515625 -81.19921875 0 -60.9453125 -173.873046875 -60.85546875 173.873046875 rlineto
            return
          </CharString>
          <CharString index="46">
            0 -82.857421875 101.5 -41.427734375 0 -455.71484375 406 0 0 455.71484375 101.5 41.427734375 0 82.857421875 -81.19921875 0 -223.30078125 -91.14453125 -223.30078125 91.14453125 rlineto
            return
          </CharString>
          <CharString index="47">
            -82.857421875 174 vlineto
            -174 -497.142578125 609 0 0 82.857421875 -174 0 174 497.142578125 rlineto
            return
          </CharString>
          <CharString index="48">
            -121.799804688 -49.99609375 0 -86.158203125 121.799804688 53.296875 121.799804688 -53.296875 0 86.158203125 rlineto
            return
          </CharString>
          <CharString index="49">
            -725 -82.857421875 725 hlineto
            return
          </CharString>
          <CharString index="50">
            -121.799804688 49.99609375 0 -82.857421875 121.799804688 -53.2978515625 rlineto
            return
          </CharString>
          <CharString index="51">
            -580 81.19921875 580 vlineto
            return
          </CharString>
          <CharString index="52">
            0 -82.857421875 101.5 -41.427734375 0 -124.287109375 -101.5 0 0 -82.85546875 101.5 0 0 -82.857421875 -101.5 0 0 -82.857421875 101.5 0 0 -82.857421875 406 0 0 82.857421875 101.5 0 0 82.857421875 rlineto
            -101.5 82.857421875 101.5 82.85546875 -101.5 124.287109375 hlineto
            101.5 41.427734375 0 82.857421875 -81.19921875 0 -223.30078125 -91.14453125 -223.30078125 91.14453125 rlineto
            return
          </CharString>
          <CharString index="53">
            -248.571289062 81.19921875 248.571289062 vlineto
            return
          </CharString>
          <CharString index="54">
            -22.4111328125 -0.0009765625 -18.1884765625 -18.5595703125 0 -22.8681640625 rrcurveto
            -0.0009765625 vlineto
            -22.8681640625 18.189453125 -18.5595703125 22.41015625 22.41015625 18.189453125 18.5595703125 22.8681640625 vhcurveto
            0.0009765625 vlineto
            0 22.8681640625 -18.1884765625 18.5595703125 -22.4111328125 0.0009765625 rrcurveto
            return
          </CharString>
          <CharString index="55">
            -82.857421875 243.6015625 82.857421875 vlineto
            return
          </CharString>
          <CharString index="56">
            121.799804688 49.99609375 0 -82.857421875 -121.799804688 -53.2978515625 rlineto
            return
          </CharString>
          <CharString index="57">
            -22.41015625 -0.0009765625 -18.189453125 -18.5595703125 0 -22.8681640625 rrcurveto
            -0.0009765625 vlineto
            0.0009765625 -22.8681640625 18.1884765625 -18.5595703125 22.41015625 0 22.4111328125 0 18.1884765625 18.5595703125 0 22.8681640625 rrcurveto
            0.0009765625 vlineto
            0 22.8681640625 -18.1884765625 18.5595703125 -22.4111328125 0.0009765625 rrcurveto
            return
          </CharString>
          <CharString index="58">
            121.799804688 49.99609375 0 86.158203125 -121.799804688 -53.296875 -121.799804688 53.296875 0 -86.158203125 rlineto
            return
          </CharString>
          <CharString index="59">
            -121.798828125 -248.69140625 121.798828125 hlineto
            return
          </CharString>
          <CharString index="60">
            0 -86.1591796875 121.80078125 53.2978515625 0 82.857421875 rlineto
            return
          </CharString>
          <CharString index="61">
            0 -86.1591796875 -121.80078125 53.2978515625 0 82.857421875 rlineto
            return
          </CharString>
          <CharString index="62">
            -22.41015625 0.0009765625 -18.189453125 18.5595703125 0 22.8681640625 rrcurveto
            0.0009765625 vlineto
            0.0009765625 22.8681640625 18.1884765625 18.5595703125 22.41015625 0 22.4111328125 0 18.1884765625 -18.5595703125 0 -22.8681640625 rrcurveto
            -0.0009765625 vlineto
            0 -22.8681640625 -18.1884765625 -18.5595703125 -22.4111328125 -0.0009765625 rrcurveto
            return
          </CharString>
          <CharString index="63">
            -22.4111328125 0.0009765625 -18.1884765625 18.5595703125 0 22.8681640625 rrcurveto
            0.0009765625 vlineto
            22.8681640625 18.189453125 18.5595703125 22.41015625 22.41015625 18.189453125 -18.5595703125 -22.8681640625 vhcurveto
            -0.0009765625 vlineto
            0 -22.8681640625 -18.1884765625 -18.5595703125 -22.4111328125 -0.0009765625 rrcurveto
            return
          </CharString>
          <CharString index="64">
            82.857421875 243.6015625 -82.857421875 vlineto
            return
          </CharString>
          <CharString index="65">
            223.30078125 165.71484375 81.19921875 414.28515625 -609 0 81.19921875 -414.28515625 rlineto
            return
          </CharString>
          <CharString index="66">
            -22.4111328125 -18.1884765625 -18.560546875 -22.8681640625 hvcurveto
            -0.0009765625 vlineto
            -22.8681640625 18.1884765625 -18.5595703125 22.4111328125 vhcurveto
            22.41015625 0 18.1884765625 18.5595703125 0.0009765625 22.8681640625 rrcurveto
            0.0009765625 vlineto
            22.8681640625 -18.1884765625 18.560546875 -22.4111328125 vhcurveto
            return
          </CharString>
          <CharString index="67">
            -22.4111328125 -18.1884765625 -18.560546875 -22.8681640625 hvcurveto
            -0.0009765625 vlineto
            0.0009765625 -22.8681640625 18.1884765625 -18.5595703125 22.41015625 0 rrcurveto
            22.4111328125 18.1884765625 18.5595703125 22.8681640625 hvcurveto
            0.0009765625 vlineto
            22.8681640625 -18.1884765625 18.560546875 -22.4111328125 vhcurveto
            return
          </CharString>
          <CharString index="68">
            -414.286132812 81.2001953125 414.286132812 vlineto
            return
          </CharString>
          <CharString index="69">
            89.69140625 72.708984375 -117.6484375 -145.126953125 hvcurveto
            -87.591796875 vlineto
            0.0009765625 -145.127929688 -90.88671875 -117.649414062 -112.114257812 0 rrcurveto
            -203 0.001953125 hlineto
            -105.532226562 0 -86.7119140625 104.245117188 -9.818359375 133.278320312 rrcurveto
            152.662109375 hlineto
            13.6865234375 -20.78125 17.125 -12.361328125 18.5888671875 0 rrcurveto
            321.16796875 vlineto
            -20.4013671875 0 -18.6416015625 -14.8837890625 -14.263671875 -24.5712890625 rrcurveto
            -126.375 hlineto
            28.44140625 76.142578125 51.64453125 50.90625 58.99609375 0 rrcurveto
            return
          </CharString>
          <CharString index="70">
            -609 -82.857421875 609 hlineto
            return
          </CharString>
          <CharString index="71">
            -86 72.5 86 vlineto
            return
          </CharString>
          <CharString index="72">
            72.5 hlineto
            return
          </CharString>
          <CharString index="73">
            86 -72.5 vlineto
            return
          </CharString>
          <CharString index="74">
            72.5 86 hlineto
            return
          </CharString>
          <CharString index="75">
            -72.5 hlineto
            return
          </CharString>
          <CharString index="76">
            -86 72.5 vlineto
            return
          </CharString>
          <CharString index="77">
            86 -72.5 -86 vlineto
            return
          </CharString>
          <CharString index="78">
            72.5 -86 -72.5 hlineto
            return
          </CharString>
          <CharString index="79">
            -304.5 -290 304.5 hlineto
            return
          </CharString>
          <CharString index="80">
            -223.30078125 -165.71484375 -81.19921875 -414.28515625 609 0 -81.19921875 414.28515625 rlineto
            return
          </CharString>
          <CharString index="81">
            -243.599609375 -82.857421875 243.599609375 hlineto
            return
          </CharString>
          <CharString index="82">
            -609 82.857421875 609 hlineto
            return
          </CharString>
          <CharString index="83">
            -243.599609375 82.857421875 243.599609375 hlineto
            return
          </CharString>
          <CharString index="84">
            124.286132812 -609 -124.286132812 vlineto
            return
          </CharString>
          <CharString index="85">
            -243.599609375 -124.286132812 243.599609375 hlineto
            return
          </CharString>
          <CharString index="86">
            -243.599609375 124.286132812 243.599609375 hlineto
            return
          </CharString>
          <CharString index="87">
            124.286132812 -243.599609375 -124.286132812 vlineto
            return
          </CharString>
          <CharString index="88">
            -580 81.19921875 165.71484375 527.80078125 414.28515625 vlineto
            return
          </CharString>
          <CharString index="89">
            -109.21484375 81.19921875 vlineto
            return
          </CharString>
          <CharString index="90">
            -166.1953125 -182.69921875 -248.5703125 182.69921875 -165.234375 243.6015625 165.234375 182.69921875 248.5703125 -182.69921875 166.1953125 vlineto
            return
          </CharString>
          <CharString index="91">
            -168.169921875 -0.001953125 -136.327148438 -129.836914062 0.0009765625 -160.161132812 -0.0009765625 -160.161132812 136.327148438 -129.836914062 168.169921875 -0.001953125 168.172851562 -0.001953125 136.33203125 129.837890625 -0.0009765625 160.1640625 0.0009765625 160.1640625 -136.33203125 129.837890625 -168.172851562 -0.001953125 rrcurveto
            return
          </CharString>
          <CharString index="92">
            270.666015625 0 -54.455078125 -311.17578125 44.46484375 0 0 20.25390625 81.201171875 0 0 -95.74609375 -81.201171875 0 0 20.25390625 -324.798828125 0 rlineto
            return
          </CharString>
          <CharString index="93">
            406 0 -67.666015625 -386.66796875 -270.66796875 0 58 331.4296875 -125.666015625 0 rlineto
            return
          </CharString>
        <CharString name=".notdef">
          0 43 394 43 hstem
          43 43 553 43 vstem
          43 hmoveto
          639 480 -639 hlineto
          43 -437 rmoveto
          394 553 -394 vlineto
          endchar
        </CharString>
        <CharString name="A">
          21 -21 21 -21 30.3809051514 82.8574066162 466.761688232 -20 20 -20 hstemhm
          hintmask 10110000
          159.5 580 rmoveto
          -93 callsubr
          -365.400390625 -231.998046875 rmoveto
          -92 callsubr
          endchar
        </CharString>
        <CharString name="Adieresis">
          21 -21 30.3809051514 82.8574066162 466.761688232 -20 61.4290008545 82.8574066162 hstem
          240.699996948 81.1992034912 81.2028045654 81.1992034912 vstem
          281.299804688 704.286132812 rmoveto
          -53 callsubr
          162.401367188 hmoveto
          -53 callsubr
          -284.201171875 -124.286132812 rmoveto
          -93 callsubr
          -365.400390625 -231.998046875 rmoveto
          -92 callsubr
          endchar
        </CharString>
        <CharString name="Amacron">
          21 -21 30.3809051514 82.8574066162 466.761688232 -20 61.4290008545 82.8574066162 hstem
          240.699005127 243.602005005 vstem
          240.69921875 704.286132812 rmoveto
          -52 callsubr
          -324.80078125 -124.286132812 rmoveto
          -93 callsubr
          -365.400390625 -231.998046875 rmoveto
          -92 callsubr
          endchar
        </CharString>
        <CharString name="B">
          0 103.037002563 165.714996338 82.8574066162 145.533599854 82.8574066162 hstemhm
          58 406 81.199005127 121.800994873 -121.800994873 101.197006226 hintmask 11111000
          58 580 rmoveto
          -91 callsubr
          hintmask 11110100
          -90 callsubr
          -82.857421875 vmoveto
          -89 callsubr
          -82.857421875 vmoveto
          hintmask 11111000
          -88 callsubr
          endchar
        </CharString>
        <CharString name="C">
          508.979003906 87.5937957764 hstem
          58 406 vstem
          220.400390625 596.572265625 rmoveto
          -87 callsubr
          endchar
        </CharString>
        <CharString name="Cacute">
          508.979003906 87.5937957764 -12.7277984619 136.154998779 hstemhm
          58 406 -162.399993896 121.800003052 hintmask 01010000
          301.599609375 670.00390625 rmoveto
          -51 callsubr
          hintmask 10100000
          -81.19921875 12.7275390625 rmoveto
          -87 callsubr
          endchar
        </CharString>
        <CharString name="Ccaron">
          508.979003906 87.5937957764 -12.7268066406 136.154006958 hstemhm
          58 406 -223.300003052 243.600006104 hintmask 01010000
          362.5 583.845703125 rmoveto
          -49 callsubr
          hintmask 10100000
          -20.2998046875 -37.26953125 rmoveto
          -87 callsubr
          endchar
        </CharString>
        <CharString name="Ccircumflex">
          508.979003906 87.5937957764 -12.7268066406 136.154006958 hstemhm
          58 406 -223.300003052 243.600006104 hintmask 01010000
          362.5 720 rmoveto
          -59 callsubr
          hintmask 10100000
          -263.899414062 -73.431640625 rmoveto
          -87 callsubr
          endchar
        </CharString>
        <CharString name="Cdotaccent">
          508.979003906 87.5937957764 24.8562011719 82.8574066162 hstemhm
          58 406 -142.100006104 81.1992034912 hintmask 01010000
          362.5 704.286132812 rmoveto
          -50 callsubr
          hintmask 10100000
          -142.099609375 -107.713867188 rmoveto
          -87 callsubr
          endchar
        </CharString>
        <CharString name="D">
          21 -21 21 -21 497.143005371 82.8574066162 hstemhm
          58 406 81.199005127 121.800994873 hintmask 10111000
          58 580 rmoveto
          -86 callsubr
          -40.599609375 -82.857421875 rmoveto
          -85 callsubr
          endchar
        </CharString>
        <CharString name="Dcaron">
          21 -21 497.143005371 82.8574066162 3.84558105469 136.154006958 hstemhm
          58 406 -223.300003052 243.600006104 60.8990020752 121.800994873 hintmask 00101000
          362.5 583.845703125 rmoveto
          -49 callsubr
          hintmask 11010100
          -182.700195312 -53.841796875 rmoveto
          -86 callsubr
          -40.599609375 -82.857421875 rmoveto
          -85 callsubr
          endchar
        </CharString>
        <CharString name="E">
          0 82.8574066162 248.570587158 82.8574066162 82.8576049805 82.8574066162 hstem
          58 406 vstem
          58 580 rmoveto
          -84 callsubr
          endchar
        </CharString>
        <CharString name="Ecaron">
          0 82.8574066162 248.570587158 82.8574066162 82.8576049805 82.8574066162 3.84558105469 136.154006958 hstemhm
          58 406 -223.300003052 243.600006104 hintmask 00010100
          362.5 583.845703125 rmoveto
          -49 callsubr
          hintmask 11101000
          -182.700195312 -53.841796875 rmoveto
          -84 callsubr
          endchar
        </CharString>
        <CharString name="Edieresis">
          0 82.8574066162 248.570587158 82.8574066162 82.8576049805 82.8574066162 41.4285888672 82.8574066162 hstemhm
          58 406 -223.300003052 81.1992034912 81.2028045654 81.1992034912 hintmask 00010110
          281.299804688 704.286132812 rmoveto
          -53 callsubr
          162.401367188 hmoveto
          -53 callsubr
          hintmask 11101000
          -385.701171875 -124.286132812 rmoveto
          -84 callsubr
          endchar
        </CharString>
        <CharString name="Edotaccent">
          0 82.8574066162 248.570587158 82.8574066162 82.8576049805 82.8574066162 41.4285888672 82.8574066162 hstemhm
          58 406 -142.100006104 81.1992034912 hintmask 00010100
          362.5 704.286132812 rmoveto
          -50 callsubr
          hintmask 11101000
          -304.5 -124.286132812 rmoveto
          -84 callsubr
          endchar
        </CharString>
        <CharString name="Emacron">
          0 82.8574066162 248.570587158 82.8574066162 82.8576049805 82.8574066162 41.4285888672 82.8574066162 hstemhm
          58 406 -223.300994873 243.602005005 hintmask 00010100
          240.69921875 704.286132812 rmoveto
          -52 callsubr
          hintmask 11101000
          -426.30078125 -124.286132812 rmoveto
          -84 callsubr
          endchar
        </CharString>
        <CharString name="F">
          21 -21 21 -21 331.427993774 82.8574066162 82.8576049805 82.8574066162 hstemhm
          58 406 hintmask 10111000
          58 580 rmoveto
          -83 callsubr
          endchar
        </CharString>
        <CharString name="G">
          21 -21 21 -21 508.979003906 87.5937957764 hstemhm
          58 406 46.6909942627 156.309005737 hintmask 10111000
          220.400390625 596.572265625 rmoveto
          -82 callsubr
          endchar
        </CharString>
        <CharString name="Gcircumflex">
          21 -21 508.979003906 87.5937957764 -12.7268066406 136.154006958 hstemhm
          58 406 -223.300003052 243.600006104 26.3909912109 156.309005737 hintmask 00101000
          362.5 720 rmoveto
          -59 callsubr
          hintmask 11010100
          -263.899414062 -73.431640625 rmoveto
          -82 callsubr
          endchar
        </CharString>
        <CharString name="Gdotaccent">
          21 -21 508.979003906 87.5937957764 24.8562011719 82.8574066162 hstemhm
          58 406 -142.100006104 81.1992034912 107.591796875 156.309005737 hintmask 00101000
          362.5 704.286132812 rmoveto
          -50 callsubr
          hintmask 11010100
          -142.099609375 -107.713867188 rmoveto
          -82 callsubr
          endchar
        </CharString>
        <CharString name="H">
          21 -21 21 -21 331.427993774 82.8574066162 165.714599609 -20 20 -20 hstemhm
          58 406 81.199005127 121.800994873 hintmask 10110110
          58 580 rmoveto
          -81 callsubr
          endchar
        </CharString>
        <CharString name="I">
          21 -21 21 -21 580 -20 20 -20 hstemhm
          159.5 406 hintmask 10101000
          159.5 580 rmoveto
          -80 callsubr
          endchar
        </CharString>
        <CharString name="IJ">
          580 -20 20 -20 hstemhm
          58 81.2012023926 -81.2001953125 121.798995972 81.1999969482 406 hintmask 10101000
          261 580 rmoveto
          -79 callsubr
          hintmask 00011000
          -487.200195312 0.12109375 rmoveto
          -48 callsubr
          endchar
        </CharString>
        <CharString name="Idieresis">
          21 -21 580 -20 61.4290008545 82.8574066162 hstemhm
          159.5 406 -324.800003052 81.1992034912 81.2028045654 81.1992034912 hintmask 00101100
          281.299804688 704.286132812 rmoveto
          -53 callsubr
          162.401367188 hmoveto
          -53 callsubr
          hintmask 11010000
          -284.201171875 -124.286132812 rmoveto
          -80 callsubr
          endchar
        </CharString>
        <CharString name="Idotaccent">
          21 -21 580 -20 61.4290008545 82.8574066162 hstemhm
          159.5 406 -243.600006104 81.1992034912 hintmask 00101000
          362.5 704.286132812 rmoveto
          -50 callsubr
          hintmask 11010000
          -203 -124.286132812 rmoveto
          -80 callsubr
          endchar
        </CharString>
        <CharString name="Imacron">
          21 -21 580 -20 61.4290008545 82.8574066162 hstemhm
          159.5 406 -324.800994873 243.602005005 hintmask 00101000
          240.69921875 704.286132812 rmoveto
          -52 callsubr
          hintmask 11010000
          -324.80078125 -124.286132812 rmoveto
          -80 callsubr
          endchar
        </CharString>
        <CharString name="J">
          580 -20 20 -20 hstemhm
          58 81.2012023926 121.798797607 406 hintmask 10110000
          261 580 rmoveto
          -79 callsubr
          endchar
        </CharString>
        <CharString name="K">
          21 -21 21 -21 580 -20 20 -20 hstemhm
          hintmask 10100000
          58 580 rmoveto
          -78 callsubr
          endchar
        </CharString>
        <CharString name="L">
          0 82.8574066162 497.142593384 -20 20 -20 hstemhm
          58 406 hintmask 11010000
          58 580 rmoveto
          -77 callsubr
          endchar
        </CharString>
        <CharString name="M">
          21 -21 21 -21 580 -20 20 -20 hstemhm
          58 406 81.199005127 121.800994873 hintmask 10101100
          58 580 rmoveto
          -76 callsubr
          endchar
        </CharString>
        <CharString name="N">
          21 -21 21 -21 580 -20 20 -20 hstemhm
          58 406 81.199005127 121.800994873 hintmask 10101100
          58 580 rmoveto
          -75 callsubr
          endchar
        </CharString>
        <CharString name="O">
          -16.5722961426 613.145004272 -87.5937042236 87.5937957764 hstemhm
          545.199005127 121.800994873 hintmask 10100000
          220.400390625 596.572265625 rmoveto
          -74 callsubr
          hintmask 01100000
          -40.599609375 -87.59375 rmoveto
          -73 callsubr
          endchar
        </CharString>
        <CharString name="Odieresis">
          -16.5722961426 613.145004272 -87.5937042236 87.5937957764 24.8562011719 82.8574066162 hstemhm
          240.699996948 81.1992034912 81.2028045654 81.1992034912 60.8977966309 121.800994873 hintmask 00111000
          281.299804688 704.286132812 rmoveto
          -53 callsubr
          162.401367188 hmoveto
          -53 callsubr
          hintmask 10000100
          -223.30078125 -107.713867188 rmoveto
          -74 callsubr
          hintmask 01000100
          -40.599609375 -87.59375 rmoveto
          -73 callsubr
          endchar
        </CharString>
        <CharString name="Omacron">
          -16.5722961426 613.145004272 -87.5937042236 87.5937957764 24.8562011719 82.8574066162 hstemhm
          240.699005127 243.602005005 60.8979949951 121.800994873 hintmask 00110000
          240.69921875 704.286132812 rmoveto
          -52 callsubr
          hintmask 10001000
          -263.900390625 -107.713867188 rmoveto
          -74 callsubr
          hintmask 01001000
          -40.599609375 -87.59375 rmoveto
          -73 callsubr
          endchar
        </CharString>
        <CharString name="P">
          21 -21 21 -21 497.143005371 82.8574066162 hstemhm
          545.201004028 121.798995972 hintmask 10110000
          58 580 rmoveto
          -72 callsubr
          -40.599609375 -82.857421875 rmoveto
          -71 callsubr
          endchar
        </CharString>
        <CharString name="Q">
          21 -21 21 -21 513.714004517 82.8574066162 hstemhm
          545.199005127 121.800994873 hintmask 10110000
          220.400390625 596.571289062 rmoveto
          -70 callsubr
          -40.599609375 -82.857421875 rmoveto
          -69 callsubr
          endchar
        </CharString>
        <CharString name="R">
          21 -21 21 -21 497.145004272 82.8554992676 hstemhm
          545.199005127 121.800994873 hintmask 10110000
          58 580 rmoveto
          -68 callsubr
          -40.599609375 -82.85546875 rmoveto
          -67 callsubr
          endchar
        </CharString>
        <CharString name="T">
          21 -21 21 -21 497.143005371 82.8574066162 hstemhm
          159.5 406 hintmask 10110000
          58 580 rmoveto
          -66 callsubr
          endchar
        </CharString>
        <CharString name="U">
          580 -20 20 -20 hstemhm
          58 406 81.2010040283 121.798995972 hintmask 10110000
          58 580 rmoveto
          -65 callsubr
          endchar
        </CharString>
        <CharString name="Udieresis">
          580 -20 61.4290008545 82.8574066162 hstemhm
          58 406 -223.300003052 81.1992034912 81.2028045654 81.1992034912 60.8997955322 121.798995972 hintmask 01011000
          281.299804688 704.286132812 rmoveto
          -53 callsubr
          162.401367188 hmoveto
          -53 callsubr
          hintmask 10100100
          -385.701171875 -124.286132812 rmoveto
          -65 callsubr
          endchar
        </CharString>
        <CharString name="Umacron">
          580 -20 61.4290008545 82.8574066162 hstemhm
          58 406 -223.300994873 243.602005005 60.8999938965 121.798995972 hintmask 01010000
          240.69921875 704.286132812 rmoveto
          -52 callsubr
          hintmask 10101000
          -426.30078125 -124.286132812 rmoveto
          -65 callsubr
          endchar
        </CharString>
        <CharString name="V">
          21 -21 21 -21 580 -20 20 -20 hstemhm
          hintmask 10100000
          58 580 rmoveto
          -64 callsubr
          endchar
        </CharString>
        <CharString name="W">
          21 -21 21 -21 580 -20 20 -20 hstemhm
          484.300994873 81.1992034912 hintmask 10101000
          580 vmoveto
          -63 callsubr
          endchar
        </CharString>
        <CharString name="Wdieresis">
          21 -21 580 -20 61.4290008545 82.8574066162 hstemhm
          240.699996948 81.1992034912 81.2028045654 81.1992034912 -0.000213623046875 81.1992034912 hintmask 00111000
          281.299804688 704.286132812 rmoveto
          -53 callsubr
          162.401367188 hmoveto
          -53 callsubr
          hintmask 11000100
          -443.701171875 -124.286132812 rmoveto
          -63 callsubr
          endchar
        </CharString>
        <CharString name="X">
          21 -21 21 -21 580 -20 20 -20 hstemhm
          hintmask 10100000
          58 580 rmoveto
          -62 callsubr
          endchar
        </CharString>
        <CharString name="Y">
          21 -21 21 -21 580 -20 20 -20 hstemhm
          159.5 406 hintmask 10101000
          58 580 rmoveto
          -61 callsubr
          endchar
        </CharString>
        <CharString name="Ydieresis">
          21 -21 580 -20 61.4290008545 82.8574066162 hstemhm
          159.5 406 -324.800003052 81.1992034912 81.2028045654 81.1992034912 hintmask 00101100
          281.299804688 704.286132812 rmoveto
          -53 callsubr
          162.401367188 hmoveto
          -53 callsubr
          hintmask 11010000
          -385.701171875 -124.286132812 rmoveto
          -61 callsubr
          endchar
        </CharString>
        <CharString name="Z">
          0 82.8574066162 414.285598755 82.8574066162 hstem
          58 580 rmoveto
          -60 callsubr
          endchar
        </CharString>
        <CharString name="Zdotaccent">
          0 82.8574066162 414.285598755 82.8574066162 41.4285888672 82.8574066162 hstem
          321.899993896 81.1992034912 vstem
          362.5 704.286132812 rmoveto
          -50 callsubr
          -304.5 -124.286132812 rmoveto
          -60 callsubr
          endchar
        </CharString>
        <CharString name="a">
          21 -21 30.3809051514 82.8574066162 466.761688232 -20 hstem
          159.5 580 rmoveto
          -93 callsubr
          -365.400390625 -231.998046875 rmoveto
          -92 callsubr
          endchar
        </CharString>
        <CharString name="acute">
          583.845001221 136.154998779 hstem
          301.600006104 121.800003052 vstem
          hintmask 00000000
          301.599609375 670.00390625 rmoveto
          -51 callsubr
          endchar
        </CharString>
        <CharString name="acutecomb">
          583.845001221 136.154998779 hstem
          301.600006104 121.800003052 vstem
          hintmask 00000000
          301.599609375 670.00390625 rmoveto
          -51 callsubr
          endchar
        </CharString>
        <CharString name="adieresis">
          21 -21 30.3809051514 82.8574066162 466.761688232 -20 61.4290008545 82.8574066162 hstem
          240.699996948 81.1992034912 81.2028045654 81.1992034912 vstem
          281.299804688 704.286132812 rmoveto
          -53 callsubr
          162.401367188 hmoveto
          -53 callsubr
          -284.201171875 -124.286132812 rmoveto
          -93 callsubr
          -365.400390625 -231.998046875 rmoveto
          -92 callsubr
          endchar
        </CharString>
        <CharString name="amacron">
          21 -21 30.3809051514 82.8574066162 466.761688232 -20 61.4290008545 82.8574066162 hstem
          240.699005127 243.602005005 vstem
          240.69921875 704.286132812 rmoveto
          -52 callsubr
          -324.80078125 -124.286132812 rmoveto
          -93 callsubr
          -365.400390625 -231.998046875 rmoveto
          -92 callsubr
          endchar
        </CharString>
        <CharString name="asciicircum">
          583.845993042 136.154006958 hstem
          240.699996948 243.600006104 vstem
          362.5 720 rmoveto
          -59 callsubr
          endchar
        </CharString>
        <CharString name="b">
          0 103.037002563 165.714996338 82.8574066162 145.533599854 82.8574066162 hstemhm
          58 406 81.199005127 101.197006226 -101.197006226 121.800994873 hintmask 11110100
          58 580 rmoveto
          -91 callsubr
          hintmask 11111000
          -90 callsubr
          -82.857421875 vmoveto
          -89 callsubr
          -82.857421875 vmoveto
          hintmask 11110100
          -88 callsubr
          endchar
        </CharString>
        <CharString name="bar">
          21 -21 21 -21 580 -20 20 -20 hstemhm
          321.899993896 81.1992034912 hintmask 10101000
          321.900390625 580 rmoveto
          -56 callsubr
          endchar
        </CharString>
        <CharString name="block">
          0 725 vstem
          725 720 rmoveto
          -725 -860 725 hlineto
          endchar
        </CharString>
        <CharString name="brokenbar">
          21 -21 21 -21 580 -20 20 -20 hstemhm
          321.899993896 81.1992034912 hintmask 00101000
          321.900390625 580 rmoveto
          -54 callsubr
          -81.19921875 -331.428710938 rmoveto
          hintmask 10001000
          -54 callsubr
          endchar
        </CharString>
        <CharString name="c">
          508.979003906 87.5937957764 hstem
          58 406 vstem
          220.400390625 596.572265625 rmoveto
          -87 callsubr
          endchar
        </CharString>
        <CharString name="cacute">
          508.979003906 87.5937957764 -12.7277984619 136.154998779 hstemhm
          58 406 -162.399993896 121.800003052 hintmask 01010000
          301.599609375 670.00390625 rmoveto
          -51 callsubr
          hintmask 10100000
          -81.19921875 12.7275390625 rmoveto
          -87 callsubr
          endchar
        </CharString>
        <CharString name="ccaron">
          508.979003906 87.5937957764 -12.7268066406 136.154006958 hstemhm
          58 406 -223.300003052 243.600006104 hintmask 01010000
          362.5 583.845703125 rmoveto
          -49 callsubr
          hintmask 10100000
          -20.2998046875 -37.26953125 rmoveto
          -87 callsubr
          endchar
        </CharString>
        <CharString name="ccircumflex">
          508.979003906 87.5937957764 -12.7268066406 136.154006958 hstemhm
          58 406 -223.300003052 243.600006104 hintmask 01010000
          362.5 720 rmoveto
          -59 callsubr
          hintmask 10100000
          -263.899414062 -73.431640625 rmoveto
          -87 callsubr
          endchar
        </CharString>
        <CharString name="cdotaccent">
          508.979003906 87.5937957764 24.8562011719 82.8574066162 hstemhm
          58 406 -142.100006104 81.1992034912 hintmask 01010000
          362.5 704.286132812 rmoveto
          -50 callsubr
          hintmask 10100000
          -142.099609375 -107.713867188 rmoveto
          -87 callsubr
          endchar
        </CharString>
        <CharString name="colon">
          0.0009765625 82.8574066162 248.570617676 82.8574066162 hstem
          321.899993896 81.1992034912 vstem
          362.5 82.8583984375 rmoveto
          -95 callsubr
          331.427734375 vmoveto
          -107 callsubr
          endchar
        </CharString>
        <CharString name="d">
          21 -21 497.143005371 82.8574066162 hstem
          58 406 81.199005127 121.800994873 vstem
          58 580 rmoveto
          -86 callsubr
          -40.599609375 -82.857421875 rmoveto
          -85 callsubr
          endchar
        </CharString>
        <CharString name="dieresis">
          621.429000854 82.8574066162 hstem
          240.699996948 81.1992034912 81.2028045654 81.1992034912 vstem
          281.299804688 704.286132812 rmoveto
          -53 callsubr
          162.401367188 hmoveto
          -53 callsubr
          endchar
        </CharString>
        <CharString name="dkshade">
          -54 86 86 86 86 86 86 86 86 86 hstem
          0 72.5 72.5 72.5 72.5 72.5 72.5 72.5 72.5 72.5 vstem
          720 vmoveto
          -860 72.5 86 72.5 -86 72.5 86 72.5 -86 72.5 86 72.5 -86 72.5 86 vlineto
          72.5 -86 72.5 86 72.5 86 -72.5 86 72.5 86 -72.5 86 72.5 86 -72.5 hlineto
          86 72.5 86 -72.5 86 72.5 86 vlineto
          -652.5 -86 rmoveto
          -29 callsubr
          145 86 rmoveto
          -29 callsubr
          145 86 rmoveto
          -29 callsubr
          145 86 rmoveto
          -29 callsubr
          -435 -86 rmoveto
          -29 callsubr
          145 86 rmoveto
          -29 callsubr
          145 86 rmoveto
          -29 callsubr
          145 86 rmoveto
          -29 callsubr
          -435 -86 rmoveto
          -29 callsubr
          145 86 rmoveto
          -29 callsubr
          145 86 rmoveto
          -29 callsubr
          145 86 rmoveto
          -29 callsubr
          -435 -86 rmoveto
          -29 callsubr
          145 86 rmoveto
          -29 callsubr
          145 86 rmoveto
          -29 callsubr
          145 86 rmoveto
          -29 callsubr
          endchar
        </CharString>
        <CharString name="dnblock">
          -220 430 hstem
          hintmask 00000000
          725 -220 rmoveto
          -725 430 725 hlineto
          endchar
        </CharString>
        <CharString name="dotbelowcomb">
          -124.285995483 82.8574066162 hstem
          321.899993896 81.1992034912 vstem
          hintmask 00000000
          362.5 -124.286132812 rmoveto
          -45 callsubr
          endchar
        </CharString>
        <CharString name="e">
          0 82.8574066162 248.570587158 82.8574066162 82.8576049805 82.8574066162 hstem
          58 406 vstem
          58 580 rmoveto
          -84 callsubr
          endchar
        </CharString>
        <CharString name="ecaron">
          0 82.8574066162 248.570587158 82.8574066162 82.8576049805 82.8574066162 3.84558105469 136.154006958 hstemhm
          58 406 -223.300003052 243.600006104 hintmask 00010100
          362.5 583.845703125 rmoveto
          -49 callsubr
          hintmask 11101000
          -182.700195312 -53.841796875 rmoveto
          -84 callsubr
          endchar
        </CharString>
        <CharString name="edieresis">
          0 82.8574066162 248.570587158 82.8574066162 82.8576049805 82.8574066162 41.4285888672 82.8574066162 hstemhm
          58 406 -223.300003052 81.1992034912 81.2028045654 81.1992034912 hintmask 00010110
          281.299804688 704.286132812 rmoveto
          -53 callsubr
          162.401367188 hmoveto
          -53 callsubr
          hintmask 11101000
          -385.701171875 -124.286132812 rmoveto
          -84 callsubr
          endchar
        </CharString>
        <CharString name="edotaccent">
          0 82.8574066162 248.570587158 82.8574066162 82.8576049805 82.8574066162 41.4285888672 82.8574066162 hstemhm
          58 406 -142.100006104 81.1992034912 hintmask 00010100
          362.5 704.286132812 rmoveto
          -50 callsubr
          hintmask 11101000
          -304.5 -124.286132812 rmoveto
          -84 callsubr
          endchar
        </CharString>
        <CharString name="ellipsis">
          0 82.8574066162 hstem
          159.5 81.1992034912 81.2007904053 81.1992034912 81.2017974854 81.1992034912 vstem
          cntrmask 01110000
          524.900390625 82.857421875 rmoveto
          -95 callsubr
          -162.400390625 hmoveto
          -107 callsubr
          -162.400390625 hmoveto
          -53 callsubr
          endchar
        </CharString>
        <CharString name="emacron">
          0 82.8574066162 248.570587158 82.8574066162 82.8576049805 82.8574066162 41.4285888672 82.8574066162 hstemhm
          58 406 -223.300994873 243.602005005 hintmask 00010100
          240.69921875 704.286132812 rmoveto
          -52 callsubr
          hintmask 11101000
          -426.30078125 -124.286132812 rmoveto
          -84 callsubr
          endchar
        </CharString>
        <CharString name="equal">
          82.8574066162 82.8563995361 82.8571929932 82.8574066162 hstem
          565.5 331.428710938 rmoveto
          -102 callsubr
          -82.857421875 vmoveto
          -94 callsubr
          endchar
        </CharString>
        <CharString name="exclam">
          0 82.8574066162 497.142593384 -20 20 -20 hstemhm
          321.899993896 81.1992034912 hintmask 10010000
          362.5 82.857421875 rmoveto
          -107 callsubr
          hintmask 11010000
          -40.599609375 497.142578125 rmoveto
          -106 callsubr
          endchar
        </CharString>
        <CharString name="exclamdbl">
          0 82.8574066162 497.142593384 -20 20 -20 hstemhm
          240.699996948 81.2001953125 81.1998138428 81.2001953125 hintmask 10011000
          281.299804688 82.857421875 rmoveto
          -40 callsubr
          162.400390625 hmoveto
          -41 callsubr
          hintmask 11011000
          -40.6005859375 497.142578125 rmoveto
          -39 callsubr
          -243.599609375 hmoveto
          -39 callsubr
          endchar
        </CharString>
        <CharString name="exclamdown">
          20 -20 497.143005371 82.8574066162 hstem
          321.899993896 81.1992034912 vstem
          hintmask 00000000
          362.5 497.142578125 rmoveto
          -22.4111328125 -18.1884765625 18.560546875 22.8681640625 hvcurveto
          0.0009765625 vlineto
          22.8681640625 18.189453125 18.5595703125 22.41015625 22.41015625 18.189453125 -18.5595703125 -22.8681640625 vhcurveto
          -0.0009765625 vlineto
          -22.8681640625 -18.1884765625 -18.560546875 -22.4111328125 vhcurveto
          -40.599609375 -497.142578125 rmoveto
          414.286132812 81.19921875 -414.286132812 vlineto
          endchar
        </CharString>
        <CharString name="f">
          21 -21 331.427993774 82.8574066162 82.8576049805 82.8574066162 hstem
          58 406 vstem
          58 580 rmoveto
          -83 callsubr
          endchar
        </CharString>
        <CharString name="filledbox">
          21 -21 21 -21 580 -20 20 -20 hstemhm
          58 609 hintmask 10101000
          58 580 rmoveto
          -580 609 580 vlineto
          endchar
        </CharString>
        <CharString name="four">
          0 143.619003296 -113.238098145 82.8574066162 466.761688232 -20 20 -20 hstemhm
          545.199005127 121.800994873 hintmask 01101000
          154.18359375 580 rmoveto
          -99 callsubr
          hintmask 10001000
          -98 callsubr
          hintmask 01101000
          -97 callsubr
          endchar
        </CharString>
        <CharString name="g">
          21 -21 508.979003906 87.5937957764 hstem
          58 406 46.6909942627 156.309005737 vstem
          220.400390625 596.572265625 rmoveto
          -82 callsubr
          endchar
        </CharString>
        <CharString name="gcircumflex">
          21 -21 508.979003906 87.5937957764 -12.7268066406 136.154006958 hstemhm
          58 406 -223.300003052 243.600006104 26.3909912109 156.309005737 hintmask 00101000
          362.5 720 rmoveto
          -59 callsubr
          hintmask 11010100
          -263.899414062 -73.431640625 rmoveto
          -82 callsubr
          endchar
        </CharString>
        <CharString name="gdotaccent">
          21 -21 508.979003906 87.5937957764 24.8562011719 82.8574066162 hstemhm
          58 406 -142.100006104 81.1992034912 107.591796875 156.309005737 hintmask 00101000
          362.5 704.286132812 rmoveto
          -50 callsubr
          hintmask 11010100
          -142.099609375 -107.713867188 rmoveto
          -82 callsubr
          endchar
        </CharString>
        <CharString name="grave">
          583.845001221 136.154998779 hstem
          301.600997925 121.800003052 vstem
          423.400390625 670.00390625 rmoveto
          -57 callsubr
          endchar
        </CharString>
        <CharString name="gravecomb">
          583.845001221 136.154998779 hstem
          301.600997925 121.800003052 vstem
          423.400390625 670.00390625 rmoveto
          -57 callsubr
          endchar
        </CharString>
        <CharString name="h">
          21 -21 331.427993774 82.8574066162 165.714599609 -20 hstem
          58 406 81.199005127 121.800994873 vstem
          58 580 rmoveto
          -81 callsubr
          endchar
        </CharString>
        <CharString name="hyphen">
          165.714004517 82.8574066162 hstem
          565.5 248.571289062 rmoveto
          -102 callsubr
          endchar
        </CharString>
        <CharString name="i">
          21 -21 580 -20 hstem
          159.5 406 vstem
          159.5 580 rmoveto
          -80 callsubr
          endchar
        </CharString>
        <CharString name="idieresis">
          21 -21 580 -20 61.4290008545 82.8574066162 hstemhm
          159.5 406 -324.800003052 81.1992034912 81.2028045654 81.1992034912 hintmask 00101100
          281.299804688 704.286132812 rmoveto
          -53 callsubr
          162.401367188 hmoveto
          -53 callsubr
          hintmask 11010000
          -284.201171875 -124.286132812 rmoveto
          -80 callsubr
          endchar
        </CharString>
        <CharString name="ij">
          580 -20 hstemhm
          58 81.2012023926 -81.2001953125 121.798995972 81.1999969482 406 hintmask 11010000
          261 580 rmoveto
          -79 callsubr
          hintmask 00110000
          -487.200195312 0.12109375 rmoveto
          -48 callsubr
          endchar
        </CharString>
        <CharString name="imacron">
          21 -21 580 -20 61.4290008545 82.8574066162 hstemhm
          159.5 406 -324.800994873 243.602005005 hintmask 00101000
          240.69921875 704.286132812 rmoveto
          -52 callsubr
          hintmask 11010000
          -324.80078125 -124.286132812 rmoveto
          -80 callsubr
          endchar
        </CharString>
        <CharString name="j">
          580 -20 hstem
          58 81.2012023926 121.798797607 406 vstem
          261 580 rmoveto
          -79 callsubr
          endchar
        </CharString>
        <CharString name="k">
          21 -21 580 -20 hstem
          58 580 rmoveto
          -78 callsubr
          endchar
        </CharString>
        <CharString name="kgreenlandic">
          21 -21 580 -20 hstem
          58 580 rmoveto
          -78 callsubr
          endchar
        </CharString>
        <CharString name="l">
          0 82.8574066162 497.142593384 -20 hstem
          58 406 vstem
          58 580 rmoveto
          -77 callsubr
          endchar
        </CharString>
        <CharString name="lfblock">
          0 362.5 vstem
          362.5 720 rmoveto
          -362.5 -860 362.5 hlineto
          endchar
        </CharString>
        <CharString name="ltshade">
          -54 86 86 86 86 86 86 86 86 86 hstem
          0 72.5 72.5 72.5 72.5 72.5 72.5 72.5 72.5 72.5 vstem
          720 vmoveto
          -36 callsubr
          72.5 hmoveto
          -36 callsubr
          72.5 hmoveto
          -36 callsubr
          72.5 hmoveto
          -36 callsubr
          72.5 hmoveto
          -36 callsubr
          -652.5 -172 rmoveto
          -36 callsubr
          72.5 hmoveto
          -36 callsubr
          72.5 hmoveto
          -36 callsubr
          72.5 hmoveto
          -36 callsubr
          72.5 hmoveto
          -36 callsubr
          -652.5 -172 rmoveto
          -36 callsubr
          72.5 hmoveto
          -36 callsubr
          72.5 hmoveto
          -36 callsubr
          72.5 hmoveto
          -36 callsubr
          72.5 hmoveto
          -36 callsubr
          -652.5 -172 rmoveto
          -36 callsubr
          72.5 hmoveto
          -36 callsubr
          72.5 hmoveto
          -36 callsubr
          72.5 hmoveto
          -36 callsubr
          72.5 hmoveto
          -36 callsubr
          -652.5 -172 rmoveto
          -36 callsubr
          72.5 hmoveto
          -36 callsubr
          72.5 hmoveto
          -36 callsubr
          72.5 hmoveto
          -36 callsubr
          72.5 hmoveto
          -36 callsubr
          endchar
        </CharString>
        <CharString name="m">
          21 -21 580 -20 hstem
          58 406 81.199005127 121.800994873 vstem
          58 580 rmoveto
          -76 callsubr
          endchar
        </CharString>
        <CharString name="macron">
          621.429000854 82.8574066162 hstem
          240.699005127 243.602005005 vstem
          240.69921875 704.286132812 rmoveto
          -52 callsubr
          endchar
        </CharString>
        <CharString name="n">
          21 -21 580 -20 hstem
          58 406 81.199005127 121.800994873 vstem
          58 580 rmoveto
          -75 callsubr
          endchar
        </CharString>
        <CharString name="o">
          -16.5722961426 613.145004272 -87.5937042236 87.5937957764 hstemhm
          545.199005127 121.800994873 hintmask 10100000
          220.400390625 596.572265625 rmoveto
          -74 callsubr
          hintmask 01100000
          -40.599609375 -87.59375 rmoveto
          -73 callsubr
          endchar
        </CharString>
        <CharString name="odieresis">
          -16.5722961426 613.145004272 -87.5937042236 87.5937957764 24.8562011719 82.8574066162 hstemhm
          240.699996948 81.1992034912 81.2028045654 81.1992034912 60.8977966309 121.800994873 hintmask 00111000
          281.299804688 704.286132812 rmoveto
          -53 callsubr
          162.401367188 hmoveto
          -53 callsubr
          hintmask 10000100
          -223.30078125 -107.713867188 rmoveto
          -74 callsubr
          hintmask 01000100
          -40.599609375 -87.59375 rmoveto
          -73 callsubr
          endchar
        </CharString>
        <CharString name="omacron">
          -16.5722961426 613.145004272 -87.5937042236 87.5937957764 24.8562011719 82.8574066162 hstemhm
          240.699005127 243.602005005 60.8979949951 121.800994873 hintmask 00110000
          240.69921875 704.286132812 rmoveto
          -52 callsubr
          hintmask 10001000
          -263.900390625 -107.713867188 rmoveto
          -74 callsubr
          hintmask 01001000
          -40.599609375 -87.59375 rmoveto
          -73 callsubr
          endchar
        </CharString>
        <CharString name="one">
          21 -21 21 -21 580 -20 20 -20 hstemhm
          159.5 406 hintmask 10101000
          443.69921875 580 rmoveto
          -100 callsubr
          endchar
        </CharString>
        <CharString name="p">
          21 -21 497.143005371 82.8574066162 hstem
          545.201004028 121.798995972 vstem
          58 580 rmoveto
          -72 callsubr
          -40.599609375 -82.857421875 rmoveto
          -71 callsubr
          endchar
        </CharString>
        <CharString name="period">
          0.0009765625 82.8574066162 hstem
          321.899993896 81.1992034912 vstem
          362.5 82.8583984375 rmoveto
          -101 callsubr
          endchar
        </CharString>
        <CharString name="plus">
          21 -21 21 -21 165.714996338 82.8574066162 hstemhm
          321.899993896 81.1992034912 hintmask 10110000
          321.900390625 414.28515625 rmoveto
          -103 callsubr
          endchar
        </CharString>
        <CharString name="q">
          21 -21 513.714004517 82.8574066162 hstem
          545.199005127 121.800994873 vstem
          220.400390625 596.571289062 rmoveto
          -70 callsubr
          -40.599609375 -82.857421875 rmoveto
          -69 callsubr
          endchar
        </CharString>
        <CharString name="quotedbl">
          414.285995483 165.714004517 hstem
          240.699996948 81.2001953125 81.1998138428 81.2001953125 vstem
          484.299804688 580 rmoveto
          -105 callsubr
          -162.399414062 165.713867188 rmoveto
          -105 callsubr
          endchar
        </CharString>
        <CharString name="quotesingle">
          414.285995483 165.714004517 hstem
          321.899993896 81.1992034912 vstem
          403.099609375 580 rmoveto
          -104 callsubr
          endchar
        </CharString>
        <CharString name="r">
          21 -21 497.145004272 82.8554992676 hstem
          545.199005127 121.800994873 vstem
          58 580 rmoveto
          -68 callsubr
          -40.599609375 -82.85546875 rmoveto
          -67 callsubr
          endchar
        </CharString>
        <CharString name="rtblock">
          0 362.5 vstem
          hintmask 00000000
          362.5 -220 rmoveto
          -362.5 860 362.5 hlineto
          endchar
        </CharString>
        <CharString name="seven">
          21 -21 21 -21 497.143005371 82.8574066162 hstemhm
          hintmask 10100000
          58 580 rmoveto
          -96 callsubr
          endchar
        </CharString>
        <CharString name="shade">
          -140 86 0 86 0 86 0 86 0 86 0 86 0 86 0 86 0 86 0 86 hstemhm
          0 72.5 0 72.5 0 72.5 0 72.5 0 72.5 0 72.5 0 72.5 0 72.5 0 72.5 0 72.5 hintmask 000000000110000000000000
          720 vmoveto
          -86 vlineto
          hintmask 000000001010000000000000
          -35 callsubr
          hintmask 000000000110000000000000
          86 vlineto
          hintmask 000000001010000000000000
          -86 vmoveto
          hintmask 000000010010000000000000
          -86 vlineto
          hintmask 000000010001000000000000
          -35 callsubr
          hintmask 000000001001000000000000
          86 vlineto
          0 vmoveto
          hintmask 000000001000100000000000
          -35 callsubr
          hintmask 000000000100100000000000
          -34 callsubr
          hintmask 000000001000100000000000
          72.5 -86 rmoveto
          hintmask 000000010000100000000000
          -86 vlineto
          hintmask 000000010000010000000000
          -35 callsubr
          hintmask 000000001000010000000000
          86 vlineto
          0 vmoveto
          hintmask 000000001000001000000000
          -35 callsubr
          hintmask 000000000100001000000000
          -34 callsubr
          hintmask 000000001000001000000000
          72.5 -86 rmoveto
          hintmask 000000010000001000000000
          -86 vlineto
          hintmask 000000010000000100000000
          -35 callsubr
          hintmask 000000001000000100000000
          86 vlineto
          0 vmoveto
          hintmask 000000001000000010000000
          -35 callsubr
          hintmask 000000000100000010000000
          -34 callsubr
          hintmask 000000001000000010000000
          72.5 -86 rmoveto
          hintmask 000000010000000010000000
          -86 vlineto
          hintmask 000000010000000001000000
          -35 callsubr
          hintmask 000000001000000001000000
          86 vlineto
          0 vmoveto
          hintmask 000000001000000000100000
          -35 callsubr
          hintmask 000000000100000000100000
          -34 callsubr
          hintmask 000000001000000000100000
          72.5 -86 rmoveto
          hintmask 000000010000000000100000
          -86 vlineto
          hintmask 000000001000000000010000
          -33 callsubr
          hintmask 000000010000000000100000
          -72.5 -86 rmoveto
          hintmask 000000010000000001000000
          -32 callsubr
          hintmask 000000100000000001000000
          -86 vlineto
          hintmask 000000100000000000100000
          -35 callsubr
          0 vmoveto
          hintmask 000001000000000000100000
          -86 vlineto
          hintmask 000000100000000000010000
          -33 callsubr
          hintmask 000001000000000000100000
          -72.5 -86 rmoveto
          hintmask 000001000000000001000000
          -32 callsubr
          hintmask 000010000000000001000000
          -86 vlineto
          hintmask 000010000000000000100000
          -35 callsubr
          0 vmoveto
          hintmask 000100000000000000100000
          -86 vlineto
          hintmask 000010000000000000010000
          -33 callsubr
          hintmask 000100000000000000100000
          -72.5 -86 rmoveto
          hintmask 000100000000000001000000
          -32 callsubr
          hintmask 001000000000000001000000
          -86 vlineto
          hintmask 001000000000000000100000
          -35 callsubr
          0 vmoveto
          hintmask 010000000000000000100000
          -86 vlineto
          hintmask 001000000000000000010000
          -33 callsubr
          hintmask 010000000000000000100000
          -72.5 -86 rmoveto
          hintmask 010000000000000001000000
          -32 callsubr
          hintmask 100000000000000001000000
          -86 vlineto
          hintmask 100000000000000000100000
          -35 callsubr
          0 vmoveto
          hintmask 100000000000000000010000
          -36 callsubr
          hintmask 100000000000000001000000
          -145 hmoveto
          hintmask 100000000000000010000000
          -32 callsubr
          hintmask 100000000000000001000000
          -31 callsubr
          hintmask 100000000000000010000000
          -72.5 86 rmoveto
          hintmask 010000000000000010000000
          86 vlineto
          hintmask 010000000000000100000000
          -32 callsubr
          hintmask 100000000000000100000000
          -86 vlineto
          0 vmoveto
          hintmask 100000000000001000000000
          -32 callsubr
          hintmask 100000000000000100000000
          -31 callsubr
          hintmask 100000000000001000000000
          -72.5 86 rmoveto
          hintmask 010000000000001000000000
          86 vlineto
          hintmask 010000000000010000000000
          -32 callsubr
          hintmask 100000000000010000000000
          -86 vlineto
          0 vmoveto
          hintmask 100000000000100000000000
          -32 callsubr
          hintmask 100000000000010000000000
          -31 callsubr
          hintmask 100000000000100000000000
          -72.5 86 rmoveto
          hintmask 010000000000100000000000
          86 vlineto
          hintmask 010000000001000000000000
          -32 callsubr
          hintmask 100000000001000000000000
          -86 vlineto
          0 vmoveto
          hintmask 100000000010000000000000
          -32 callsubr
          hintmask 100000000001000000000000
          -31 callsubr
          hintmask 100000000010000000000000
          -72.5 86 rmoveto
          hintmask 010000000010000000000000
          -30 callsubr
          72.5 86 rmoveto
          hintmask 010000000001000000000000
          -35 callsubr
          hintmask 001000000001000000000000
          86 vlineto
          hintmask 001000000010000000000000
          -32 callsubr
          0 vmoveto
          hintmask 000100000010000000000000
          -30 callsubr
          72.5 86 rmoveto
          hintmask 000100000001000000000000
          -35 callsubr
          hintmask 000010000001000000000000
          86 vlineto
          hintmask 000010000010000000000000
          -32 callsubr
          0 vmoveto
          hintmask 000001000010000000000000
          -30 callsubr
          72.5 86 rmoveto
          hintmask 000001000001000000000000
          -35 callsubr
          hintmask 000000100001000000000000
          86 vlineto
          hintmask 000000100010000000000000
          -32 callsubr
          0 vmoveto
          hintmask 000000010010000000000000
          -30 callsubr
          hintmask 000000100001000000000000
          145 hmoveto
          hintmask 000000100000100000000000
          -35 callsubr
          hintmask 000000010000100000000000
          86 vlineto
          hintmask 000000010001000000000000
          -32 callsubr
          hintmask 000000100000100000000000
          72.5 -86 rmoveto
          hintmask 000001000000100000000000
          -86 vlineto
          hintmask 000001000000010000000000
          -35 callsubr
          hintmask 000000100000010000000000
          86 vlineto
          0 vmoveto
          hintmask 000000100000001000000000
          -35 callsubr
          hintmask 000000010000001000000000
          86 vlineto
          hintmask 000000010000010000000000
          -32 callsubr
          hintmask 000000100000001000000000
          72.5 -86 rmoveto
          hintmask 000001000000001000000000
          -86 vlineto
          hintmask 000001000000000100000000
          -35 callsubr
          hintmask 000000100000000100000000
          86 vlineto
          0 vmoveto
          hintmask 000000100000000010000000
          -35 callsubr
          hintmask 000000010000000010000000
          86 vlineto
          hintmask 000000010000000100000000
          -32 callsubr
          hintmask 000000100000000010000000
          72.5 -86 rmoveto
          hintmask 000001000000000010000000
          -86 vlineto
          hintmask 000001000000000001000000
          -35 callsubr
          hintmask 000000100000000001000000
          86 vlineto
          hintmask 000001000000000010000000
          -72.5 -86 rmoveto
          hintmask 000001000000000100000000
          -32 callsubr
          hintmask 000010000000000100000000
          -86 vlineto
          hintmask 000010000000000010000000
          -35 callsubr
          0 vmoveto
          hintmask 000100000000000010000000
          -86 vlineto
          hintmask 000100000000000001000000
          -35 callsubr
          hintmask 000010000000000001000000
          86 vlineto
          hintmask 000100000000000010000000
          -72.5 -86 rmoveto
          hintmask 000100000000000100000000
          -32 callsubr
          hintmask 001000000000000100000000
          -86 vlineto
          hintmask 001000000000000010000000
          -35 callsubr
          0 vmoveto
          hintmask 010000000000000010000000
          -86 vlineto
          hintmask 010000000000000001000000
          -35 callsubr
          hintmask 001000000000000001000000
          86 vlineto
          hintmask 001000000000000100000000
          -145 hmoveto
          hintmask 001000000000001000000000
          -32 callsubr
          hintmask 010000000000001000000000
          -86 vlineto
          hintmask 010000000000000100000000
          -35 callsubr
          hintmask 001000000000001000000000
          -72.5 86 rmoveto
          hintmask 000100000000001000000000
          86 vlineto
          hintmask 000100000000010000000000
          -32 callsubr
          hintmask 001000000000010000000000
          -86 vlineto
          0 vmoveto
          hintmask 001000000000100000000000
          -32 callsubr
          hintmask 010000000000100000000000
          -86 vlineto
          hintmask 010000000000010000000000
          -35 callsubr
          hintmask 001000000000100000000000
          -72.5 86 rmoveto
          hintmask 000100000000100000000000
          86 vlineto
          hintmask 000100000001000000000000
          -32 callsubr
          hintmask 001000000001000000000000
          -86 vlineto
          hintmask 000100000000100000000000
          72.5 86 rmoveto
          hintmask 000100000000010000000000
          -35 callsubr
          hintmask 000010000000010000000000
          86 vlineto
          hintmask 000010000000100000000000
          -32 callsubr
          0 vmoveto
          hintmask 000001000000100000000000
          86 vlineto
          hintmask 000001000001000000000000
          -32 callsubr
          hintmask 000010000001000000000000
          -86 vlineto
          hintmask 000010000000010000000000
          145 hmoveto
          hintmask 000010000000001000000000
          -35 callsubr
          hintmask 000001000000001000000000
          86 vlineto
          hintmask 000001000000010000000000
          -32 callsubr
          hintmask 000010000000001000000000
          72.5 -86 rmoveto
          hintmask 000100000000001000000000
          -86 vlineto
          hintmask 000100000000000100000000
          -35 callsubr
          hintmask 000010000000000100000000
          86 vlineto
          endchar
        </CharString>
        <CharString name="t">
          21 -21 497.143005371 82.8574066162 hstem
          159.5 406 vstem
          58 580 rmoveto
          -66 callsubr
          endchar
        </CharString>
        <CharString name="twodotenleader">
          0 82.8574066162 hstem
          240.699996948 81.1992034912 81.2017974854 81.1992034912 vstem
          443.700195312 82.857421875 rmoveto
          -41 callsubr
          -162.400390625 hmoveto
          -40 callsubr
          endchar
        </CharString>
        <CharString name="u">
          580 -20 hstem
          58 406 81.2010040283 121.798995972 vstem
          58 580 rmoveto
          -65 callsubr
          endchar
        </CharString>
        <CharString name="u1F4EF">
          68.3583984375 121.742004395 116.927597046 65.8300933838 hstem
          58.00390625 172.337997437 189.170089722 65.81640625 100.472595215 81.1992034912 vstem
          58.00390625 414.278320312 rmoveto
          -0.0009765625 vlineto
          0 -48.7568359375 16.69921875 -74.298828125 20.576171875 -42.7890625 4.0322265625 -8.3857421875 7.126953125 -13.205078125 4.7490234375 -7.8857421875 4.7490234375 -7.88671875 8.251953125 -12.3310546875 5.4189453125 -7.3076171875 5.4189453125 -7.30859375 9.294921875 -11.333984375 6.0341796875 -6.65625 37.2978515625 -41.1533203125 71.85546875 -41.5478515625 51.2373046875 -10.0390625 14.1796875 -2.7783203125 23.185546875 -2.2548828125 14.388671875 0 rrcurveto
          5.8154296875 0.1015625 9.423828125 0.53515625 5.7958984375 0.55859375 0.1435546875 0.0185546875 0.232421875 0.03125 0.1435546875 0.01953125 7.494140625 0.6357421875 12.099609375 1.6455078125 7.4140625 1.392578125 1.095703125 0.181640625 1.77734375 0.30859375 1.09375 0.197265625 6.7314453125 1.3798828125 10.8291015625 2.7392578125 6.611328125 1.99609375 1.732421875 0.484375 2.8046875 0.818359375 1.72265625 0.525390625 rrcurveto
          5.890625 1.9443359375 9.447265625 3.5458984375 5.75 2.42578125 2.36328125 0.9404296875 3.814453125 1.58984375 2.337890625 1.0185546875 2.853515625 1.212890625 4.59765625 2.0625 2.8125 1.328125 -0.3642578125 -0.0205078125 -0.58984375 -0.033203125 -0.3642578125 -0.01953125 100.747070312 49.8095703125 81.9794921875 141.73046875 0.263671875 124.823242188 rrcurveto
          -81.19921875 hlineto
          -0.1025390625 -81.4697265625 -50.7197265625 -98.716796875 -62.392578125 -40.1630859375 7.009765625 14.263671875 5.708984375 24.4765625 0.0234375 15.89453125 rrcurveto
          0.0009765625 vlineto
          0 68.60546875 -55.6796875 55.6796875 -68.60546875 0.0009765625 -43.3232421875 -0.0478515625 -50.2392578125 -31.802734375 -18.578125 -39.1376953125 -10.1279296875 29.9599609375 -8.3154296875 50.3623046875 -0.1171875 32.09375 rrcurveto
          -40.599609375 0 -131.7421875 0 rlineto
          303.046875 -107.2578125 rmoveto
          0.0009765625 hlineto
          32.2724609375 26.19140625 -26.1923828125 -32.271484375 hvcurveto
          -0.0009765625 vlineto
          -0.0009765625 -32.271484375 -26.19140625 -26.19140625 -32.271484375 0 rrcurveto
          -0.0009765625 0 -0.0009765625 0 rlineto
          -32.271484375 0 -26.19140625 26.19140625 -0.0009765625 32.271484375 rrcurveto
          0.0009765625 vlineto
          32.271484375 26.19140625 26.1923828125 32.2724609375 vhcurveto
          endchar
        </CharString>
        <CharString name="udieresis">
          580 -20 61.4290008545 82.8574066162 hstemhm
          58 406 -223.300003052 81.1992034912 81.2028045654 81.1992034912 60.8997955322 121.798995972 hintmask 01011000
          281.299804688 704.286132812 rmoveto
          -53 callsubr
          162.401367188 hmoveto
          -53 callsubr
          hintmask 10100100
          -385.701171875 -124.286132812 rmoveto
          -65 callsubr
          endchar
        </CharString>
        <CharString name="umacron">
          580 -20 61.4290008545 82.8574066162 hstemhm
          58 406 -223.300994873 243.602005005 60.8999938965 121.798995972 hintmask 01010000
          240.69921875 704.286132812 rmoveto
          -52 callsubr
          hintmask 10101000
          -426.30078125 -124.286132812 rmoveto
          -65 callsubr
          endchar
        </CharString>
        <CharString name="underscore">
          -140 82.8574066162 hstem
          725 -57.142578125 rmoveto
          -58 callsubr
          endchar
        </CharString>
        <CharString name="underscoredbl">
          -248.570999146 82.8574066162 82.8561859131 82.8574066162 hstem
          725 hmoveto
          -58 callsubr
          -82.8564453125 vmoveto
          -58 callsubr
          endchar
        </CharString>
        <CharString name="uni0302">
          583.845993042 136.154006958 hstem
          240.699996948 243.600006104 vstem
          362.5 720 rmoveto
          -59 callsubr
          endchar
        </CharString>
        <CharString name="uni0304">
          621.429000854 82.8574066162 hstem
          240.699005127 243.602005005 vstem
          240.69921875 704.286132812 rmoveto
          -52 callsubr
          endchar
        </CharString>
        <CharString name="uni0307">
          621.429000854 82.8574066162 hstem
          321.899993896 81.1992034912 vstem
          362.5 704.286132812 rmoveto
          -50 callsubr
          endchar
        </CharString>
        <CharString name="uni0308">
          621.429000854 82.8574066162 hstem
          240.699996948 81.1992034912 81.2028045654 81.1992034912 vstem
          281.299804688 704.286132812 rmoveto
          -53 callsubr
          162.401367188 0 rmoveto
          -53 callsubr
          endchar
        </CharString>
        <CharString name="uni030B">
          583.845001221 136.154998779 hstem
          220.399002075 284.20199585 vstem
          220.399414062 670.00390625 rmoveto
          -47 callsubr
          40.6005859375 -49.99609375 rmoveto
          -47 callsubr
          endchar
        </CharString>
        <CharString name="uni030C">
          583.845993042 136.154006958 hstem
          240.699996948 243.600006104 vstem
          362.5 583.845703125 rmoveto
          -49 callsubr
          endchar
        </CharString>
        <CharString name="uni030F">
          583.845001221 136.154998779 hstem
          220.397994995 284.20199585 vstem
          hintmask 00000000
          504.600585938 670.00390625 rmoveto
          -46 callsubr
          -40.6005859375 -49.99609375 rmoveto
          -46 callsubr
          endchar
        </CharString>
        <CharString name="uni0316">
          -140 136.154998779 hstem
          301.600006104 121.800003052 vstem
          hintmask 00000000
          301.599609375 -90.00390625 rmoveto
          121.799804688 -49.99609375 0 82.857421875 -121.799804688 53.2978515625 rlineto
          endchar
        </CharString>
        <CharString name="uni0317">
          -140 136.154998779 hstem
          301.600997925 121.800003052 vstem
          hintmask 00000000
          423.400390625 -90.00390625 rmoveto
          -121.799804688 -49.99609375 0 82.857421875 121.799804688 53.2978515625 rlineto
          endchar
        </CharString>
        <CharString name="uni0324">
          -124.285995483 82.8574066162 hstem
          240.699996948 81.1992034912 81.2028045654 81.1992034912 vstem
          hintmask 00000000
          281.299804688 -124.286132812 rmoveto
          -44 callsubr
          162.401367188 hmoveto
          -44 callsubr
          endchar
        </CharString>
        <CharString name="uni032C">
          -140 136.154006958 hstem
          240.699996948 243.600006104 vstem
          hintmask 00000000
          362.5 -140 rmoveto
          -121.799804688 49.99609375 0 86.158203125 121.799804688 -53.296875 121.799804688 53.296875 0 -86.158203125 rlineto
          endchar
        </CharString>
        <CharString name="uni032D">
          -140 136.154006958 hstem
          240.699996948 243.600006104 vstem
          hintmask 00000000
          362.5 -3.845703125 rmoveto
          121.799804688 -49.99609375 0 -86.158203125 -121.799804688 53.296875 -121.799804688 -53.296875 0 86.158203125 rlineto
          endchar
        </CharString>
        <CharString name="uni0331">
          -124.285995483 82.8574066162 hstem
          240.699005127 243.602005005 vstem
          hintmask 00000000
          240.69921875 -124.286132812 rmoveto
          -43 callsubr
          endchar
        </CharString>
        <CharString name="uni16C9">
          21 -21 21 -21 497.143005371 82.8574066162 hstemhm
          hintmask 10100000
          362.5 hmoveto
          -42 callsubr
          223.30078125 -61.83984375 rmoveto
          -151.01953125 107.344726562 -56.041015625 285.922851562 414.12109375 0 -56.041015625 -285.922851562 rlineto
          endchar
        </CharString>
        <CharString name="uni16CA">
          21 -21 21 -21 580 -20 20 -20 hstemhm
          hintmask 10100000
          362.5 hmoveto
          -42 callsubr
          endchar
        </CharString>
        <CharString name="uni1E02">
          0 103.037002563 165.714996338 82.8574066162 145.533599854 82.8574066162 41.4285888672 82.8574066162 hstemhm
          58 406 -142.100006104 81.1992034912 142.099807739 101.197006226 -101.197006226 121.800994873 hintmask 00010100
          362.5 704.286132812 rmoveto
          -50 callsubr
          hintmask 11101001
          -304.5 -124.286132812 rmoveto
          -91 callsubr
          hintmask 11101010
          -90 callsubr
          -82.857421875 vmoveto
          -89 callsubr
          -82.857421875 vmoveto
          hintmask 11101001
          -88 callsubr
          endchar
        </CharString>
        <CharString name="uni1E03">
          0 103.037002563 165.714996338 82.8574066162 145.533599854 82.8574066162 41.4285888672 82.8574066162 hstemhm
          58 406 -142.100006104 81.1992034912 142.099807739 101.197006226 -101.197006226 121.800994873 hintmask 00010100
          362.5 704.286132812 rmoveto
          -50 callsubr
          hintmask 11101001
          -304.5 -124.286132812 rmoveto
          -91 callsubr
          hintmask 11101010
          -90 callsubr
          -82.857421875 vmoveto
          -89 callsubr
          -82.857421875 vmoveto
          hintmask 11101001
          -88 callsubr
          endchar
        </CharString>
        <CharString name="uni1E04">
          -124.285995483 82.8574066162 41.4285888672 103.037002563 165.714996338 82.8574066162 145.533599854 82.8574066162 hstemhm
          58 406 -142.100006104 81.1992034912 142.099807739 101.197006226 -101.197006226 121.800994873 hintmask 10000100
          362.5 -124.286132812 rmoveto
          -45 callsubr
          hintmask 01111001
          -304.5 704.286132812 rmoveto
          -91 callsubr
          hintmask 01111010
          -90 callsubr
          -82.857421875 vmoveto
          -89 callsubr
          -82.857421875 vmoveto
          hintmask 01111001
          -88 callsubr
          endchar
        </CharString>
        <CharString name="uni1E05">
          -124.285995483 82.8574066162 41.4285888672 103.037002563 165.714996338 82.8574066162 145.533599854 82.8574066162 hstemhm
          58 406 -142.100006104 81.1992034912 142.099807739 101.197006226 -101.197006226 121.800994873 hintmask 10000100
          362.5 -124.286132812 rmoveto
          -45 callsubr
          hintmask 01111001
          -304.5 704.286132812 rmoveto
          -91 callsubr
          hintmask 01111010
          -90 callsubr
          -82.857421875 vmoveto
          -89 callsubr
          -82.857421875 vmoveto
          hintmask 01111001
          -88 callsubr
          endchar
        </CharString>
        <CharString name="uni1E06">
          -124.285995483 82.8574066162 41.4285888672 103.037002563 165.714996338 82.8574066162 145.533599854 82.8574066162 hstemhm
          58 406 -223.300994873 243.602005005 60.8979949951 101.197006226 -101.197006226 121.800994873 hintmask 10000100
          240.69921875 -124.286132812 rmoveto
          -43 callsubr
          hintmask 01111001
          -426.30078125 704.286132812 rmoveto
          -91 callsubr
          hintmask 01111010
          -90 callsubr
          -82.857421875 vmoveto
          -89 callsubr
          -82.857421875 vmoveto
          hintmask 01111001
          -88 callsubr
          endchar
        </CharString>
        <CharString name="uni1E07">
          -124.285995483 82.8574066162 41.4285888672 103.037002563 165.714996338 82.8574066162 145.533599854 82.8574066162 hstemhm
          58 406 -223.300994873 243.602005005 60.8979949951 101.197006226 -101.197006226 121.800994873 hintmask 10000100
          240.69921875 -124.286132812 rmoveto
          -43 callsubr
          hintmask 01111001
          -426.30078125 704.286132812 rmoveto
          -91 callsubr
          hintmask 01111010
          -90 callsubr
          -82.857421875 vmoveto
          -89 callsubr
          -82.857421875 vmoveto
          hintmask 01111001
          -88 callsubr
          endchar
        </CharString>
        <CharString name="uni1E0A">
          21 -21 497.143005371 82.8574066162 41.4285888672 82.8574066162 hstemhm
          58 406 -142.100006104 81.1992034912 142.099807739 121.800994873 hintmask 00101000
          362.5 704.286132812 rmoveto
          -50 callsubr
          hintmask 11010100
          -304.5 -124.286132812 rmoveto
          -86 callsubr
          -40.599609375 -82.857421875 rmoveto
          -85 callsubr
          endchar
        </CharString>
        <CharString name="uni1E0B">
          21 -21 497.143005371 82.8574066162 41.4285888672 82.8574066162 hstemhm
          58 406 -142.100006104 81.1992034912 142.099807739 121.800994873 hintmask 00101000
          362.5 704.286132812 rmoveto
          -50 callsubr
          hintmask 11010100
          -304.5 -124.286132812 rmoveto
          -86 callsubr
          -40.599609375 -82.857421875 rmoveto
          -85 callsubr
          endchar
        </CharString>
        <CharString name="uni1E0C">
          -124.285995483 82.8574066162 62.4285888672 -21 497.143005371 82.8574066162 hstemhm
          58 406 -142.100006104 81.1992034912 142.099807739 121.800994873 hintmask 10001000
          362.5 -124.286132812 rmoveto
          -45 callsubr
          hintmask 01110100
          -304.5 704.286132812 rmoveto
          -86 callsubr
          -40.599609375 -82.857421875 rmoveto
          -85 callsubr
          endchar
        </CharString>
        <CharString name="uni1E0D">
          -124.285995483 82.8574066162 62.4285888672 -21 497.143005371 82.8574066162 hstemhm
          58 406 -142.100006104 81.1992034912 142.099807739 121.800994873 hintmask 10001000
          362.5 -124.286132812 rmoveto
          -45 callsubr
          hintmask 01110100
          -304.5 704.286132812 rmoveto
          -86 callsubr
          -40.599609375 -82.857421875 rmoveto
          -85 callsubr
          endchar
        </CharString>
        <CharString name="uni1E0E">
          -124.285995483 82.8574066162 62.4285888672 -21 497.143005371 82.8574066162 hstemhm
          58 406 -223.300994873 243.602005005 60.8979949951 121.800994873 hintmask 10001000
          240.69921875 -124.286132812 rmoveto
          -43 callsubr
          hintmask 01110100
          -426.30078125 704.286132812 rmoveto
          -86 callsubr
          -40.599609375 -82.857421875 rmoveto
          -85 callsubr
          endchar
        </CharString>
        <CharString name="uni1E0F">
          -124.285995483 82.8574066162 62.4285888672 -21 497.143005371 82.8574066162 hstemhm
          58 406 -223.300994873 243.602005005 60.8979949951 121.800994873 hintmask 10001000
          240.69921875 -124.286132812 rmoveto
          -43 callsubr
          hintmask 01110100
          -426.30078125 704.286132812 rmoveto
          -86 callsubr
          -40.599609375 -82.857421875 rmoveto
          -85 callsubr
          endchar
        </CharString>
        <CharString name="uni1E1E">
          21 -21 331.427993774 82.8574066162 82.8576049805 82.8574066162 41.4285888672 82.8574066162 hstemhm
          58 406 -142.100006104 81.1992034912 hintmask 00010100
          362.5 704.286132812 rmoveto
          -50 callsubr
          hintmask 11101000
          -304.5 -124.286132812 rmoveto
          -83 callsubr
          endchar
        </CharString>
        <CharString name="uni1E1F">
          21 -21 331.427993774 82.8574066162 82.8576049805 82.8574066162 41.4285888672 82.8574066162 hstemhm
          58 406 -142.100006104 81.1992034912 hintmask 00010100
          362.5 704.286132812 rmoveto
          -50 callsubr
          hintmask 11101000
          -304.5 -124.286132812 rmoveto
          -83 callsubr
          endchar
        </CharString>
        <CharString name="uni1E20">
          21 -21 508.979003906 87.5937957764 24.8562011719 82.8574066162 hstemhm
          58 406 -223.300994873 243.602005005 26.3899841309 156.309005737 hintmask 00101000
          240.69921875 704.286132812 rmoveto
          -52 callsubr
          hintmask 11010100
          -263.900390625 -107.713867188 rmoveto
          -82 callsubr
          endchar
        </CharString>
        <CharString name="uni1E21">
          21 -21 508.979003906 87.5937957764 24.8562011719 82.8574066162 hstemhm
          58 406 -223.300994873 243.602005005 26.3899841309 156.309005737 hintmask 00101000
          240.69921875 704.286132812 rmoveto
          -52 callsubr
          hintmask 11010100
          -263.900390625 -107.713867188 rmoveto
          -82 callsubr
          endchar
        </CharString>
        <CharString name="uni1E22">
          21 -21 331.427993774 82.8574066162 165.714599609 -20 61.4290008545 82.8574066162 hstemhm
          58 406 -142.100006104 81.1992034912 142.099807739 121.800994873 hintmask 00010100
          362.5 704.286132812 rmoveto
          -50 callsubr
          hintmask 11101010
          -304.5 -124.286132812 rmoveto
          -81 callsubr
          endchar
        </CharString>
        <CharString name="uni1E23">
          21 -21 331.427993774 82.8574066162 165.714599609 -20 61.4290008545 82.8574066162 hstemhm
          58 406 -142.100006104 81.1992034912 142.099807739 121.800994873 hintmask 00010100
          362.5 704.286132812 rmoveto
          -50 callsubr
          hintmask 11101010
          -304.5 -124.286132812 rmoveto
          -81 callsubr
          endchar
        </CharString>
        <CharString name="uni1E24">
          -124.285995483 82.8574066162 62.4285888672 -21 331.427993774 82.8574066162 165.714599609 -20 hstemhm
          58 406 -142.100006104 81.1992034912 142.099807739 121.800994873 hintmask 10000100
          362.5 -124.286132812 rmoveto
          -45 callsubr
          hintmask 01111010
          -304.5 704.286132812 rmoveto
          -81 callsubr
          endchar
        </CharString>
        <CharString name="uni1E25">
          -124.285995483 82.8574066162 62.4285888672 -21 331.427993774 82.8574066162 165.714599609 -20 hstemhm
          58 406 -142.100006104 81.1992034912 142.099807739 121.800994873 hintmask 10000100
          362.5 -124.286132812 rmoveto
          -45 callsubr
          hintmask 01111010
          -304.5 704.286132812 rmoveto
          -81 callsubr
          endchar
        </CharString>
        <CharString name="uni1E26">
          21 -21 331.427993774 82.8574066162 165.714599609 -20 61.4290008545 82.8574066162 hstemhm
          58 406 -223.300003052 81.1992034912 81.2028045654 81.1992034912 60.8977966309 121.800994873 hintmask 00010110
          281.299804688 704.286132812 rmoveto
          -53 callsubr
          162.401367188 hmoveto
          -53 callsubr
          hintmask 11101001
          -385.701171875 -124.286132812 rmoveto
          -81 callsubr
          endchar
        </CharString>
        <CharString name="uni1E27">
          21 -21 331.427993774 82.8574066162 165.714599609 -20 61.4290008545 82.8574066162 hstemhm
          58 406 -223.300003052 81.1992034912 81.2028045654 81.1992034912 60.8977966309 121.800994873 hintmask 00010110
          281.299804688 704.286132812 rmoveto
          -53 callsubr
          162.401367188 hmoveto
          -53 callsubr
          hintmask 11101001
          -385.701171875 -124.286132812 rmoveto
          -81 callsubr
          endchar
        </CharString>
        <CharString name="uni1E32">
          -124.285995483 82.8574066162 62.4285888672 -21 580 -20 hstem
          321.899993896 81.1992034912 vstem
          hintmask 00000000
          362.5 -124.286132812 rmoveto
          -45 callsubr
          -304.5 704.286132812 rmoveto
          -78 callsubr
          endchar
        </CharString>
        <CharString name="uni1E33">
          -124.285995483 82.8574066162 62.4285888672 -21 580 -20 hstem
          321.899993896 81.1992034912 vstem
          hintmask 00000000
          362.5 -124.286132812 rmoveto
          -45 callsubr
          -304.5 704.286132812 rmoveto
          -78 callsubr
          endchar
        </CharString>
        <CharString name="uni1E34">
          -124.285995483 82.8574066162 62.4285888672 -21 580 -20 hstem
          240.699005127 243.602005005 vstem
          hintmask 00000000
          240.69921875 -124.286132812 rmoveto
          -43 callsubr
          -426.30078125 704.286132812 rmoveto
          -78 callsubr
          endchar
        </CharString>
        <CharString name="uni1E35">
          -124.285995483 82.8574066162 62.4285888672 -21 580 -20 hstem
          240.699005127 243.602005005 vstem
          hintmask 00000000
          240.69921875 -124.286132812 rmoveto
          -43 callsubr
          -426.30078125 704.286132812 rmoveto
          -78 callsubr
          endchar
        </CharString>
        <CharString name="uni1E36">
          -124.285995483 82.8574066162 41.4285888672 82.8574066162 497.142593384 -20 hstemhm
          58 406 -142.100006104 81.1992034912 hintmask 10001000
          362.5 -124.286132812 rmoveto
          -45 callsubr
          hintmask 01110000
          -304.5 704.286132812 rmoveto
          -77 callsubr
          endchar
        </CharString>
        <CharString name="uni1E37">
          -124.285995483 82.8574066162 41.4285888672 82.8574066162 497.142593384 -20 hstemhm
          58 406 -142.100006104 81.1992034912 hintmask 10001000
          362.5 -124.286132812 rmoveto
          -45 callsubr
          hintmask 01110000
          -304.5 704.286132812 rmoveto
          -77 callsubr
          endchar
        </CharString>
        <CharString name="uni1E38">
          -124.285995483 82.8574066162 41.4285888672 82.8574066162 497.142593384 -20 61.4290008545 82.8574066162 hstemhm
          58 406 -223.300994873 243.602005005 -162.401016235 81.1992034912 hintmask 00010100
          240.69921875 704.286132812 rmoveto
          -52 callsubr
          hintmask 10000010
          -121.80078125 -828.572265625 rmoveto
          -45 callsubr
          hintmask 01101000
          -304.5 704.286132812 rmoveto
          -77 callsubr
          endchar
        </CharString>
        <CharString name="uni1E39">
          -124.285995483 82.8574066162 41.4285888672 82.8574066162 497.142593384 -20 61.4290008545 82.8574066162 hstemhm
          58 406 -223.300994873 243.602005005 -162.401016235 81.1992034912 hintmask 00010100
          240.69921875 704.286132812 rmoveto
          -52 callsubr
          hintmask 10000010
          -121.80078125 -828.572265625 rmoveto
          -45 callsubr
          hintmask 01101000
          -304.5 704.286132812 rmoveto
          -77 callsubr
          endchar
        </CharString>
        <CharString name="uni1E3A">
          -124.285995483 82.8574066162 41.4285888672 82.8574066162 497.142593384 -20 hstemhm
          58 406 -223.300994873 243.602005005 hintmask 10001000
          240.69921875 -124.286132812 rmoveto
          -43 callsubr
          hintmask 01110000
          -426.30078125 704.286132812 rmoveto
          -77 callsubr
          endchar
        </CharString>
        <CharString name="uni1E3B">
          -124.285995483 82.8574066162 41.4285888672 82.8574066162 497.142593384 -20 hstemhm
          58 406 -223.300994873 243.602005005 hintmask 10001000
          240.69921875 -124.286132812 rmoveto
          -43 callsubr
          hintmask 01110000
          -426.30078125 704.286132812 rmoveto
          -77 callsubr
          endchar
        </CharString>
        <CharString name="uni1E40">
          21 -21 580 -20 61.4290008545 82.8574066162 hstemhm
          58 406 -142.100006104 81.1992034912 142.099807739 121.800994873 hintmask 00101000
          362.5 704.286132812 rmoveto
          -50 callsubr
          hintmask 11010100
          -304.5 -124.286132812 rmoveto
          -76 callsubr
          endchar
        </CharString>
        <CharString name="uni1E41">
          21 -21 580 -20 61.4290008545 82.8574066162 hstemhm
          58 406 -142.100006104 81.1992034912 142.099807739 121.800994873 hintmask 00101000
          362.5 704.286132812 rmoveto
          -50 callsubr
          hintmask 11010100
          -304.5 -124.286132812 rmoveto
          -76 callsubr
          endchar
        </CharString>
        <CharString name="uni1E42">
          -124.285995483 82.8574066162 62.4285888672 -21 580 -20 hstemhm
          58 406 -142.100006104 81.1992034912 142.099807739 121.800994873 hintmask 10001000
          362.5 -124.286132812 rmoveto
          -45 callsubr
          hintmask 01110100
          -304.5 704.286132812 rmoveto
          -76 callsubr
          endchar
        </CharString>
        <CharString name="uni1E43">
          -124.285995483 82.8574066162 62.4285888672 -21 580 -20 hstemhm
          58 406 -142.100006104 81.1992034912 142.099807739 121.800994873 hintmask 10001000
          362.5 -124.286132812 rmoveto
          -45 callsubr
          hintmask 01110100
          -304.5 704.286132812 rmoveto
          -76 callsubr
          endchar
        </CharString>
        <CharString name="uni1E44">
          21 -21 580 -20 61.4290008545 82.8574066162 hstemhm
          58 406 -142.100006104 81.1992034912 142.099807739 121.800994873 hintmask 00101000
          362.5 704.286132812 rmoveto
          -50 callsubr
          hintmask 11010100
          -304.5 -124.286132812 rmoveto
          -75 callsubr
          endchar
        </CharString>
        <CharString name="uni1E45">
          21 -21 580 -20 61.4290008545 82.8574066162 hstemhm
          58 406 -142.100006104 81.1992034912 142.099807739 121.800994873 hintmask 00101000
          362.5 704.286132812 rmoveto
          -50 callsubr
          hintmask 11010100
          -304.5 -124.286132812 rmoveto
          -75 callsubr
          endchar
        </CharString>
        <CharString name="uni1E46">
          -124.285995483 82.8574066162 62.4285888672 -21 580 -20 hstemhm
          58 406 -142.100006104 81.1992034912 142.099807739 121.800994873 hintmask 10001000
          362.5 -124.286132812 rmoveto
          -45 callsubr
          hintmask 01110100
          -304.5 704.286132812 rmoveto
          -75 callsubr
          endchar
        </CharString>
        <CharString name="uni1E47">
          -124.285995483 82.8574066162 62.4285888672 -21 580 -20 hstemhm
          58 406 -142.100006104 81.1992034912 142.099807739 121.800994873 hintmask 10001000
          362.5 -124.286132812 rmoveto
          -45 callsubr
          hintmask 01110100
          -304.5 704.286132812 rmoveto
          -75 callsubr
          endchar
        </CharString>
        <CharString name="uni1E48">
          -124.285995483 82.8574066162 62.4285888672 -21 580 -20 hstemhm
          58 406 -223.300994873 243.602005005 60.8979949951 121.800994873 hintmask 10001000
          240.69921875 -124.286132812 rmoveto
          -43 callsubr
          hintmask 01110100
          -426.30078125 704.286132812 rmoveto
          -75 callsubr
          endchar
        </CharString>
        <CharString name="uni1E49">
          -124.285995483 82.8574066162 62.4285888672 -21 580 -20 hstemhm
          58 406 -223.300994873 243.602005005 60.8979949951 121.800994873 hintmask 10001000
          240.69921875 -124.286132812 rmoveto
          -43 callsubr
          hintmask 01110100
          -426.30078125 704.286132812 rmoveto
          -75 callsubr
          endchar
        </CharString>
        <CharString name="uni1E56">
          21 -21 497.143005371 82.8574066162 41.4285888672 82.8574066162 hstem
          321.899993896 81.1992034912 142.101806641 121.798995972 vstem
          362.5 704.286132812 rmoveto
          -50 callsubr
          -304.5 -124.286132812 rmoveto
          -72 callsubr
          -40.599609375 -82.857421875 rmoveto
          -71 callsubr
          endchar
        </CharString>
        <CharString name="uni1E57">
          21 -21 497.143005371 82.8574066162 41.4285888672 82.8574066162 hstem
          321.899993896 81.1992034912 142.101806641 121.798995972 vstem
          362.5 704.286132812 rmoveto
          -50 callsubr
          -304.5 -124.286132812 rmoveto
          -72 callsubr
          -40.599609375 -82.857421875 rmoveto
          -71 callsubr
          endchar
        </CharString>
        <CharString name="uni1E58">
          21 -21 497.145004272 82.8554992676 41.4284973145 82.8574066162 hstem
          321.899993896 81.1992034912 142.099807739 121.800994873 vstem
          362.5 704.286132812 rmoveto
          -50 callsubr
          -304.5 -124.286132812 rmoveto
          -68 callsubr
          -40.599609375 -82.85546875 rmoveto
          -67 callsubr
          endchar
        </CharString>
        <CharString name="uni1E59">
          -124.285995483 82.8574066162 62.4285888672 -21 580 -20 hstemhm
          58 406 -223.300994873 243.602005005 60.8979949951 121.800994873 hintmask 10001000
          240.69921875 -124.286132812 rmoveto
          -43 callsubr
          hintmask 01110100
          -426.30078125 704.286132812 rmoveto
          -75 callsubr
          endchar
        </CharString>
        <CharString name="uni1E5A">
          -124.285995483 82.8574066162 62.4285888672 -21 497.145004272 82.8554992676 hstem
          321.899993896 81.1992034912 142.099807739 121.800994873 vstem
          hintmask 00000000
          362.5 -124.286132812 rmoveto
          -45 callsubr
          -304.5 704.286132812 rmoveto
          -68 callsubr
          -40.599609375 -82.85546875 rmoveto
          -67 callsubr
          endchar
        </CharString>
        <CharString name="uni1E5B">
          -124.285995483 82.8574066162 62.4285888672 -21 497.145004272 82.8554992676 hstem
          321.899993896 81.1992034912 142.099807739 121.800994873 vstem
          hintmask 00000000
          362.5 -124.286132812 rmoveto
          -45 callsubr
          -304.5 704.286132812 rmoveto
          -68 callsubr
          -40.599609375 -82.85546875 rmoveto
          -67 callsubr
          endchar
        </CharString>
        <CharString name="uni1E5C">
          -124.285995483 82.8574066162 62.4285888672 -21 497.145004272 82.8554992676 41.4284973145 82.8574066162 hstemhm
          240.699005127 243.602005005 -162.401016235 81.1992034912 142.099807739 121.800994873 hintmask 00011000
          240.69921875 704.286132812 rmoveto
          -52 callsubr
          hintmask 11100110
          -121.80078125 -828.572265625 rmoveto
          -45 callsubr
          -304.5 704.286132812 rmoveto
          -68 callsubr
          -40.599609375 -82.85546875 rmoveto
          -67 callsubr
          endchar
        </CharString>
        <CharString name="uni1E5D">
          -124.285995483 82.8574066162 62.4285888672 -21 497.145004272 82.8554992676 41.4284973145 82.8574066162 hstemhm
          240.699005127 243.602005005 -162.401016235 81.1992034912 142.099807739 121.800994873 hintmask 00011000
          240.69921875 704.286132812 rmoveto
          -52 callsubr
          hintmask 11100110
          -121.80078125 -828.572265625 rmoveto
          -45 callsubr
          -304.5 704.286132812 rmoveto
          -68 callsubr
          -40.599609375 -82.85546875 rmoveto
          -67 callsubr
          endchar
        </CharString>
        <CharString name="uni1E5E">
          -124.285995483 82.8574066162 62.4285888672 -21 497.145004272 82.8554992676 hstem
          240.699005127 243.602005005 60.8979949951 121.800994873 vstem
          hintmask 00000000
          240.69921875 -124.286132812 rmoveto
          -43 callsubr
          -426.30078125 704.286132812 rmoveto
          -68 callsubr
          -40.599609375 -82.85546875 rmoveto
          -67 callsubr
          endchar
        </CharString>
        <CharString name="uni1E5F">
          -124.285995483 82.8574066162 62.4285888672 -21 497.145004272 82.8554992676 hstem
          240.699005127 243.602005005 60.8979949951 121.800994873 vstem
          hintmask 00000000
          240.69921875 -124.286132812 rmoveto
          -43 callsubr
          -426.30078125 704.286132812 rmoveto
          -68 callsubr
          -40.599609375 -82.85546875 rmoveto
          -67 callsubr
          endchar
        </CharString>
        <CharString name="uni1E60">
          621.429000854 82.8574066162 hstem
          321.899993896 81.1992034912 vstem
          362.5 704.286132812 rmoveto
          -50 callsubr
          endchar
        </CharString>
        <CharString name="uni1E61">
          621.429000854 82.8574066162 hstem
          321.899993896 81.1992034912 vstem
          362.5 704.286132812 rmoveto
          -50 callsubr
          endchar
        </CharString>
        <CharString name="uni1E62">
          -124.285995483 82.8574066162 hstem
          321.899993896 81.1992034912 vstem
          hintmask 00000000
          362.5 -124.286132812 rmoveto
          -45 callsubr
          endchar
        </CharString>
        <CharString name="uni1E63">
          -124.285995483 82.8574066162 hstem
          321.899993896 81.1992034912 vstem
          hintmask 00000000
          362.5 -124.286132812 rmoveto
          -45 callsubr
          endchar
        </CharString>
        <CharString name="uni1E68">
          -124.285995483 82.8574066162 662.857589722 82.8574066162 hstem
          321.899993896 81.1992034912 vstem
          362.5 704.286132812 rmoveto
          -50 callsubr
          hintmask 00000000
          -828.572265625 vmoveto
          -45 callsubr
          endchar
        </CharString>
        <CharString name="uni1E69">
          -124.285995483 82.8574066162 662.857589722 82.8574066162 hstem
          321.899993896 81.1992034912 vstem
          362.5 704.286132812 rmoveto
          -50 callsubr
          hintmask 00000000
          -828.572265625 vmoveto
          -45 callsubr
          endchar
        </CharString>
        <CharString name="uni1E6A">
          21 -21 497.143005371 82.8574066162 41.4285888672 82.8574066162 hstemhm
          159.5 406 -243.600006104 81.1992034912 hintmask 00101000
          362.5 704.286132812 rmoveto
          -50 callsubr
          hintmask 11010000
          -304.5 -124.286132812 rmoveto
          -66 callsubr
          endchar
        </CharString>
        <CharString name="uni1E6B">
          21 -21 497.143005371 82.8574066162 41.4285888672 82.8574066162 hstemhm
          159.5 406 -243.600006104 81.1992034912 hintmask 00101000
          362.5 704.286132812 rmoveto
          -50 callsubr
          hintmask 11010000
          -304.5 -124.286132812 rmoveto
          -66 callsubr
          endchar
        </CharString>
        <CharString name="uni1E6C">
          -124.285995483 82.8574066162 62.4285888672 -21 497.143005371 82.8574066162 hstemhm
          159.5 406 -243.600006104 81.1992034912 hintmask 10001000
          362.5 -124.286132812 rmoveto
          -45 callsubr
          hintmask 01110000
          -304.5 704.286132812 rmoveto
          -66 callsubr
          endchar
        </CharString>
        <CharString name="uni1E6D">
          -124.285995483 82.8574066162 62.4285888672 -21 497.143005371 82.8574066162 hstemhm
          159.5 406 -243.600006104 81.1992034912 hintmask 10001000
          362.5 -124.286132812 rmoveto
          -45 callsubr
          hintmask 01110000
          -304.5 704.286132812 rmoveto
          -66 callsubr
          endchar
        </CharString>
        <CharString name="uni1E6E">
          -124.285995483 82.8574066162 62.4285888672 -21 497.143005371 82.8574066162 hstemhm
          159.5 406 -324.800994873 243.602005005 hintmask 10001000
          240.69921875 -124.286132812 rmoveto
          -43 callsubr
          hintmask 01110000
          -426.30078125 704.286132812 rmoveto
          -66 callsubr
          endchar
        </CharString>
        <CharString name="uni1E6F">
          -124.285995483 82.8574066162 62.4285888672 -21 497.143005371 82.8574066162 hstemhm
          159.5 406 -324.800994873 243.602005005 hintmask 10001000
          240.69921875 -124.286132812 rmoveto
          -43 callsubr
          hintmask 01110000
          -426.30078125 704.286132812 rmoveto
          -66 callsubr
          endchar
        </CharString>
        <CharString name="uni1E72">
          -124.285995483 82.8574066162 621.428588867 -20 hstemhm
          58 406 -223.300003052 81.1992034912 81.2028045654 81.1992034912 60.8997955322 121.798995972 hintmask 10011000
          281.299804688 -124.286132812 rmoveto
          -44 callsubr
          162.401367188 hmoveto
          -44 callsubr
          hintmask 01100100
          -385.701171875 704.286132812 rmoveto
          -65 callsubr
          endchar
        </CharString>
        <CharString name="uni1E73">
          -124.285995483 82.8574066162 621.428588867 -20 hstemhm
          58 406 -223.300003052 81.1992034912 81.2028045654 81.1992034912 60.8997955322 121.798995972 hintmask 10011000
          281.299804688 -124.286132812 rmoveto
          -44 callsubr
          162.401367188 hmoveto
          -44 callsubr
          hintmask 01100100
          -385.701171875 704.286132812 rmoveto
          -65 callsubr
          endchar
        </CharString>
        <CharString name="uni1E7E">
          -124.285995483 82.8574066162 62.4285888672 -21 580 -20 hstem
          321.899993896 81.1992034912 vstem
          hintmask 00000000
          362.5 -124.286132812 rmoveto
          -45 callsubr
          -304.5 704.286132812 rmoveto
          -64 callsubr
          endchar
        </CharString>
        <CharString name="uni1E7F">
          -124.285995483 82.8574066162 62.4285888672 -21 580 -20 hstem
          321.899993896 81.1992034912 vstem
          hintmask 00000000
          362.5 -124.286132812 rmoveto
          -45 callsubr
          -304.5 704.286132812 rmoveto
          -64 callsubr
          endchar
        </CharString>
        <CharString name="uni1E86">
          21 -21 580 -20 61.4290008545 82.8574066162 hstem
          321.899993896 81.1992034912 81.2017974854 81.1992034912 vstem
          362.5 704.286132812 rmoveto
          -50 callsubr
          -362.5 -124.286132812 rmoveto
          -63 callsubr
          endchar
        </CharString>
        <CharString name="uni1E87">
          21 -21 580 -20 61.4290008545 82.8574066162 hstem
          321.899993896 81.1992034912 81.2017974854 81.1992034912 vstem
          362.5 704.286132812 rmoveto
          -50 callsubr
          -362.5 -124.286132812 rmoveto
          -63 callsubr
          endchar
        </CharString>
        <CharString name="uni1E88">
          -124.285995483 82.8574066162 62.4285888672 -21 580 -20 hstem
          321.899993896 81.1992034912 81.2017974854 81.1992034912 vstem
          hintmask 00000000
          362.5 -124.286132812 rmoveto
          -45 callsubr
          -362.5 704.286132812 rmoveto
          -63 callsubr
          endchar
        </CharString>
        <CharString name="uni1E89">
          -124.285995483 82.8574066162 62.4285888672 -21 580 -20 hstem
          321.899993896 81.1992034912 81.2017974854 81.1992034912 vstem
          hintmask 00000000
          362.5 -124.286132812 rmoveto
          -45 callsubr
          -362.5 704.286132812 rmoveto
          -63 callsubr
          endchar
        </CharString>
        <CharString name="uni1E8A">
          21 -21 580 -20 61.4290008545 82.8574066162 hstem
          321.899993896 81.1992034912 vstem
          362.5 704.286132812 rmoveto
          -50 callsubr
          -304.5 -124.286132812 rmoveto
          -62 callsubr
          endchar
        </CharString>
        <CharString name="uni1E8B">
          21 -21 580 -20 61.4290008545 82.8574066162 hstem
          321.899993896 81.1992034912 vstem
          362.5 704.286132812 rmoveto
          -50 callsubr
          -304.5 -124.286132812 rmoveto
          -62 callsubr
          endchar
        </CharString>
        <CharString name="uni1E8C">
          21 -21 580 -20 61.4290008545 82.8574066162 hstem
          240.699996948 81.1992034912 81.2028045654 81.1992034912 vstem
          281.299804688 704.286132812 rmoveto
          -53 callsubr
          162.401367188 hmoveto
          -53 callsubr
          -385.701171875 -124.286132812 rmoveto
          -62 callsubr
          endchar
        </CharString>
        <CharString name="uni1E8D">
          21 -21 580 -20 61.4290008545 82.8574066162 hstem
          240.699996948 81.1992034912 81.2028045654 81.1992034912 vstem
          281.299804688 704.286132812 rmoveto
          -53 callsubr
          162.401367188 hmoveto
          -53 callsubr
          -385.701171875 -124.286132812 rmoveto
          -62 callsubr
          endchar
        </CharString>
        <CharString name="uni1E8E">
          21 -21 580 -20 61.4290008545 82.8574066162 hstemhm
          159.5 406 -243.600006104 81.1992034912 hintmask 00101000
          362.5 704.286132812 rmoveto
          -50 callsubr
          hintmask 11010000
          -304.5 -124.286132812 rmoveto
          -61 callsubr
          endchar
        </CharString>
        <CharString name="uni1E8F">
          21 -21 580 -20 61.4290008545 82.8574066162 hstemhm
          159.5 406 -243.600006104 81.1992034912 hintmask 00101000
          362.5 704.286132812 rmoveto
          -50 callsubr
          hintmask 11010000
          -304.5 -124.286132812 rmoveto
          -61 callsubr
          endchar
        </CharString>
        <CharString name="uni1E92">
          -124.285995483 82.8574066162 41.4285888672 82.8574066162 414.285598755 82.8574066162 hstem
          321.899993896 81.1992034912 vstem
          hintmask 00000000
          362.5 -124.286132812 rmoveto
          -45 callsubr
          -304.5 704.286132812 rmoveto
          -60 callsubr
          endchar
        </CharString>
        <CharString name="uni1E93">
          -124.285995483 82.8574066162 41.4285888672 82.8574066162 414.285598755 82.8574066162 hstem
          321.899993896 81.1992034912 vstem
          hintmask 00000000
          362.5 -124.286132812 rmoveto
          -45 callsubr
          -304.5 704.286132812 rmoveto
          -60 callsubr
          endchar
        </CharString>
        <CharString name="uni1E94">
          -124.285995483 82.8574066162 41.4285888672 82.8574066162 414.285598755 82.8574066162 hstem
          240.699005127 243.602005005 vstem
          hintmask 00000000
          240.69921875 -124.286132812 rmoveto
          -43 callsubr
          -426.30078125 704.286132812 rmoveto
          -60 callsubr
          endchar
        </CharString>
        <CharString name="uni1E95">
          -124.285995483 82.8574066162 41.4285888672 82.8574066162 414.285598755 82.8574066162 hstem
          240.699005127 243.602005005 vstem
          hintmask 00000000
          240.69921875 -124.286132812 rmoveto
          -43 callsubr
          -426.30078125 704.286132812 rmoveto
          -60 callsubr
          endchar
        </CharString>
        <CharString name="uni1E96">
          -124.285995483 82.8574066162 62.4285888672 -21 331.427993774 82.8574066162 165.714599609 -20 hstemhm
          58 406 -223.300994873 243.602005005 60.8979949951 121.800994873 hintmask 10000100
          240.69921875 -124.286132812 rmoveto
          -43 callsubr
          hintmask 01111010
          -426.30078125 704.286132812 rmoveto
          -81 callsubr
          endchar
        </CharString>
        <CharString name="uni1E97">
          21 -21 497.143005371 82.8574066162 41.4285888672 82.8574066162 hstemhm
          159.5 406 -324.800003052 81.1992034912 81.2028045654 81.1992034912 hintmask 00101100
          281.299804688 704.286132812 rmoveto
          -53 callsubr
          162.401367188 hmoveto
          -53 callsubr
          hintmask 11010000
          -385.701171875 -124.286132812 rmoveto
          -66 callsubr
          endchar
        </CharString>
        <CharString name="uni1EA0">
          -124.285995483 82.8574066162 62.4285888672 -21 30.3809051514 82.8574066162 466.761688232 -20 hstem
          321.899993896 81.1992034912 vstem
          hintmask 00000000
          362.5 -124.286132812 rmoveto
          -45 callsubr
          -203 704.286132812 rmoveto
          -93 callsubr
          -365.400390625 -231.998046875 rmoveto
          -92 callsubr
          endchar
        </CharString>
        <CharString name="uni1EA1">
          -124.285995483 82.8574066162 62.4285888672 -21 30.3809051514 82.8574066162 466.761688232 -20 hstem
          321.899993896 81.1992034912 vstem
          hintmask 00000000
          362.5 -124.286132812 rmoveto
          -45 callsubr
          -203 704.286132812 rmoveto
          -93 callsubr
          -365.400390625 -231.998046875 rmoveto
          -92 callsubr
          endchar
        </CharString>
        <CharString name="uni1EB8">
          -124.285995483 82.8574066162 41.4285888672 82.8574066162 248.570587158 82.8574066162 82.8576049805 82.8574066162 hstemhm
          58 406 -142.100006104 81.1992034912 hintmask 10000100
          362.5 -124.286132812 rmoveto
          -45 callsubr
          hintmask 01111000
          -304.5 704.286132812 rmoveto
          -84 callsubr
          endchar
        </CharString>
        <CharString name="uni1EB9">
          -124.285995483 82.8574066162 41.4285888672 82.8574066162 248.570587158 82.8574066162 82.8576049805 82.8574066162 hstemhm
          58 406 -142.100006104 81.1992034912 hintmask 10000100
          362.5 -124.286132812 rmoveto
          -45 callsubr
          hintmask 01111000
          -304.5 704.286132812 rmoveto
          -84 callsubr
          endchar
        </CharString>
        <CharString name="uni1ECA">
          -124.285995483 82.8574066162 62.4285888672 -21 580 -20 hstemhm
          159.5 406 -243.600006104 81.1992034912 hintmask 10001000
          362.5 -124.286132812 rmoveto
          -45 callsubr
          hintmask 01110000
          -203 704.286132812 rmoveto
          -80 callsubr
          endchar
        </CharString>
        <CharString name="uni1ECB">
          -124.285995483 82.8574066162 62.4285888672 -21 580 -20 hstemhm
          159.5 406 -243.600006104 81.1992034912 hintmask 10001000
          362.5 -124.286132812 rmoveto
          -45 callsubr
          hintmask 01110000
          -203 704.286132812 rmoveto
          -80 callsubr
          endchar
        </CharString>
        <CharString name="uni1ECC">
          -124.285995483 82.8574066162 24.8562927246 613.145004272 -87.5937042236 87.5937957764 hstemhm
          321.899993896 81.1992034912 142.099807739 121.800994873 hintmask 10010000
          362.5 -124.286132812 rmoveto
          -45 callsubr
          hintmask 01001000
          -142.099609375 720.858398438 rmoveto
          -74 callsubr
          hintmask 00101000
          -40.599609375 -87.59375 rmoveto
          -73 callsubr
          endchar
        </CharString>
        <CharString name="uni1ECD">
          -124.285995483 82.8574066162 24.8562927246 613.145004272 -87.5937042236 87.5937957764 hstemhm
          321.899993896 81.1992034912 142.099807739 121.800994873 hintmask 10010000
          362.5 -124.286132812 rmoveto
          -45 callsubr
          hintmask 01001000
          -142.099609375 720.858398438 rmoveto
          -74 callsubr
          hintmask 00101000
          -40.599609375 -87.59375 rmoveto
          -73 callsubr
          endchar
        </CharString>
        <CharString name="uni1EE4">
          -124.285995483 82.8574066162 621.428588867 -20 hstemhm
          58 406 -142.100006104 81.1992034912 142.101806641 121.798995972 hintmask 10010000
          362.5 -124.286132812 rmoveto
          -45 callsubr
          hintmask 01101000
          -304.5 704.286132812 rmoveto
          -65 callsubr
          endchar
        </CharString>
        <CharString name="uni1EE5">
          -124.285995483 82.8574066162 621.428588867 -20 hstemhm
          58 406 -142.100006104 81.1992034912 142.101806641 121.798995972 hintmask 10010000
          362.5 -124.286132812 rmoveto
          -45 callsubr
          hintmask 01101000
          -304.5 704.286132812 rmoveto
          -65 callsubr
          endchar
        </CharString>
        <CharString name="uni1EF4">
          -124.285995483 82.8574066162 62.4285888672 -21 580 -20 hstemhm
          159.5 406 -243.600006104 81.1992034912 hintmask 10001000
          362.5 -124.286132812 rmoveto
          -45 callsubr
          hintmask 01110000
          -304.5 704.286132812 rmoveto
          -61 callsubr
          endchar
        </CharString>
        <CharString name="uni1EF5">
          -124.285995483 82.8574066162 62.4285888672 -21 580 -20 hstemhm
          159.5 406 -243.600006104 81.1992034912 hintmask 10001000
          362.5 -124.286132812 rmoveto
          -45 callsubr
          hintmask 01110000
          -304.5 704.286132812 rmoveto
          -61 callsubr
          endchar
        </CharString>
        <CharString name="uni2016">
          240.699996948 81.2001953125 79.1938018799 81.2001953125 vstem
          240.700195312 721.651367188 rmoveto
          -863.302734375 81.2001953125 863.302734375 vlineto
          79.193359375 -1.6513671875 rmoveto
          -860 81.2001953125 860 vlineto
          endchar
        </CharString>
        <CharString name="uni203E">
          637.143005371 82.8574066162 hstem
          725 720 rmoveto
          -58 callsubr
          endchar
        </CharString>
        <CharString name="uni2160">
          21 -21 580 -20 hstem
          159.5 406 vstem
          159.5 580 rmoveto
          -80 callsubr
          endchar
        </CharString>
        <CharString name="uni2164">
          21 -21 580 -20 hstem
          58 580 rmoveto
          -64 callsubr
          endchar
        </CharString>
        <CharString name="uni2169">
          21 -21 580 -20 hstem
          58 580 rmoveto
          -62 callsubr
          endchar
        </CharString>
        <CharString name="uni216C">
          0 82.8574066162 497.142593384 -20 hstem
          58 406 vstem
          58 580 rmoveto
          -77 callsubr
          endchar
        </CharString>
        <CharString name="uni216D">
          508.979003906 87.5937957764 hstem
          58 406 vstem
          220.400390625 596.572265625 rmoveto
          -87 callsubr
          endchar
        </CharString>
        <CharString name="uni216E">
          21 -21 497.143005371 82.8574066162 hstem
          58 406 81.199005127 121.800994873 vstem
          58 580 rmoveto
          -86 callsubr
          -40.599609375 -82.857421875 rmoveto
          -85 callsubr
          endchar
        </CharString>
        <CharString name="uni216F">
          21 -21 580 -20 hstem
          58 406 81.199005127 121.800994873 vstem
          58 580 rmoveto
          -76 callsubr
          endchar
        </CharString>
        <CharString name="uni2170">
          21 -21 580 -20 hstem
          159.5 406 vstem
          159.5 580 rmoveto
          -80 callsubr
          endchar
        </CharString>
        <CharString name="uni2174">
          21 -21 580 -20 hstem
          58 580 rmoveto
          -64 callsubr
          endchar
        </CharString>
        <CharString name="uni2179">
          21 -21 580 -20 hstem
          58 580 rmoveto
          -62 callsubr
          endchar
        </CharString>
        <CharString name="uni217C">
          0 82.8574066162 497.142593384 -20 hstem
          58 406 vstem
          58 580 rmoveto
          -77 callsubr
          endchar
        </CharString>
        <CharString name="uni217D">
          508.979003906 87.5937957764 hstem
          58 406 vstem
          220.400390625 596.572265625 rmoveto
          -87 callsubr
          endchar
        </CharString>
        <CharString name="uni217E">
          21 -21 497.143005371 82.8574066162 hstem
          58 406 81.199005127 121.800994873 vstem
          58 580 rmoveto
          -86 callsubr
          -40.599609375 -82.857421875 rmoveto
          -85 callsubr
          endchar
        </CharString>
        <CharString name="uni217F">
          21 -21 580 -20 hstem
          58 406 81.199005127 121.800994873 vstem
          58 580 rmoveto
          -76 callsubr
          endchar
        </CharString>
        <CharString name="uni2183">
          508.979003906 87.5937957764 hstem
          261 406 vstem
          hintmask 00000000
          504.599609375 596.572265625 rmoveto
          -38 callsubr
          endchar
        </CharString>
        <CharString name="uni2184">
          508.979003906 87.5937957764 hstem
          261 406 vstem
          hintmask 00000000
          504.599609375 596.572265625 rmoveto
          -38 callsubr
          endchar
        </CharString>
        <CharString name="uni2423">
          -140 82.8574066162 0 140 hstemhm
          58 81.2001953125 446.599807739 81.2001953125 hintmask 10110000
          667 -57.142578125 rmoveto
          -37 callsubr
          hintmask 01110000
          -527.799804688 222.857421875 rmoveto
          -81.2001953125 hlineto
          hintmask 10110000
          -140 81.2001953125 vlineto
          hintmask 01110000
          527.799804688 140 rmoveto
          -81.2001953125 hlineto
          hintmask 10110000
          -140 81.2001953125 vlineto
          endchar
        </CharString>
        <CharString name="uni2581">
          -140 107.5 hstem
          725 -32.5 rmoveto
          -725 -107.5 725 hlineto
          endchar
        </CharString>
        <CharString name="uni2582">
          -140 215 hstem
          725 75 rmoveto
          -725 -215 725 hlineto
          endchar
        </CharString>
        <CharString name="uni2583">
          -140 322.5 hstem
          725 182.5 rmoveto
          -725 -322.5 725 hlineto
          endchar
        </CharString>
        <CharString name="uni2585">
          -140 537.5 hstem
          725 397.5 rmoveto
          -725 -537.5 725 hlineto
          endchar
        </CharString>
        <CharString name="uni2586">
          -140 645 hstem
          0 725 vstem
          725 505 rmoveto
          -725 -645 725 hlineto
          endchar
        </CharString>
        <CharString name="uni2587">
          -140 752.5 hstem
          0 725 vstem
          725 612.5 rmoveto
          -725 -752.5 725 hlineto
          endchar
        </CharString>
        <CharString name="uni2589">
          0 634.375 vstem
          634.375 720 rmoveto
          -634.375 -860 634.375 hlineto
          endchar
        </CharString>
        <CharString name="uni258A">
          0 543.75 vstem
          543.75 720 rmoveto
          -543.75 -860 543.75 hlineto
          endchar
        </CharString>
        <CharString name="uni258B">
          0 453.125 vstem
          453.125 720 rmoveto
          -453.125 -860 453.125 hlineto
          endchar
        </CharString>
        <CharString name="uni258D">
          0 241.667007446 vstem
          241.666992188 720 rmoveto
          -241.666992188 -860 241.666992188 hlineto
          endchar
        </CharString>
        <CharString name="uni258E">
          0 181.25 vstem
          181.25 720 rmoveto
          -181.25 -860 181.25 hlineto
          endchar
        </CharString>
        <CharString name="uni258F">
          0 90.625 vstem
          90.625 720 rmoveto
          -90.625 -860 90.625 hlineto
          endchar
        </CharString>
        <CharString name="uni2594">
          532.5 107.5 hstem
          hintmask 00000000
          725 532.5 rmoveto
          -725 107.5 725 hlineto
          endchar
        </CharString>
        <CharString name="uni2595">
          0 90.625 vstem
          hintmask 00000000
          90.625 -220 rmoveto
          -90.625 860 90.625 hlineto
          endchar
        </CharString>
        <CharString name="uni2596">
          0 290 hstem
          58 304.5 vstem
          362.5 290 rmoveto
          -28 callsubr
          endchar
        </CharString>
        <CharString name="uni259A">
          0 290 0 290 hstemhm
          58 304.5 0 304.5 hintmask 10010000
          667 290 rmoveto
          hintmask 10100000
          -304.5 hlineto
          hintmask 10010000
          -290 304.5 vlineto
          hintmask 01100000
          -304.5 580 rmoveto
          -304.5 -290 hlineto
          hintmask 10100000
          304.5 hlineto
          endchar
        </CharString>
        <CharString name="uni259B">
          21 -21 21 -21 290 290 hstemhm
          58 304.5 hintmask 10110000
          58 580 rmoveto
          -580 304.5 290 304.5 290 vlineto
          endchar
        </CharString>
        <CharString name="uni259C">
          21 -21 21 -21 290 290 hstemhm
          362.5 304.5 hintmask 10110000
          58 580 rmoveto
          -290 304.5 -290 304.5 580 vlineto
          endchar
        </CharString>
        <CharString name="uni259D">
          290 290 hstem
          362.5 304.5 vstem
          667 580 rmoveto
          -28 callsubr
          endchar
        </CharString>
        <CharString name="uni259E">
          0 290 0 290 hstemhm
          58 304.5 0 304.5 hintmask 10100000
          362.5 290 rmoveto
          -28 callsubr
          hintmask 01010000
          304.5 580 rmoveto
          -304.5 hlineto
          hintmask 10100000
          -290 vlineto
          hintmask 01010000
          304.5 hlineto
          endchar
        </CharString>
        <CharString name="uni259F">
          0 290 290 -20 20 -20 hstemhm
          362.5 304.5 hintmask 11010000
          362.5 580 rmoveto
          -290 -304.5 -290 609 580 vlineto
          endchar
        </CharString>
        <CharString name="uni2610">
          0 82.8574066162 414.285598755 82.8574066162 hstem
          58 81.1992034912 446.601791382 81.1992034912 vstem
          58 580 rmoveto
          -580 609 580 vlineto
          -527.80078125 -82.857421875 rmoveto
          446.6015625 -414.28515625 -446.6015625 hlineto
          endchar
        </CharString>
        <CharString name="uni2616">
          0 82.8574066162 497.142593384 -20 20 -20 hstemhm
          hintmask 11000000
          362.5 580 rmoveto
          -27 callsubr
          -223.30078125 61.83984375 rmoveto
          151.01953125 -107.344726562 56.041015625 -285.922851562 -414.12109375 0 56.041015625 285.922851562 rlineto
          endchar
        </CharString>
        <CharString name="uni2617">
          21 -21 21 -21 580 -20 20 -20 hstemhm
          hintmask 10100000
          362.5 580 rmoveto
          -27 callsubr
          endchar
        </CharString>
        <CharString name="uni2630">
          41.4286956787 82.8574066162 124.284896851 82.8574066162 124.285598755 82.8574066162 hstem
          cntrmask 11100000
          667 331.428710938 rmoveto
          -37 callsubr
          290 vmoveto
          -37 callsubr
          -331.427734375 vmoveto
          -37 callsubr
          endchar
        </CharString>
        <CharString name="uni2631">
          41.4286956787 82.8574066162 124.284896851 82.8574066162 124.285598755 82.8574066162 hstem
          cntrmask 11100000
          667 331.428710938 rmoveto
          -37 callsubr
          -365.400390625 290 rmoveto
          -26 callsubr
          365.400390625 82.857421875 rmoveto
          -26 callsubr
          -331.427734375 vmoveto
          -37 callsubr
          endchar
        </CharString>
        <CharString name="uni2632">
          41.4286956787 82.8574066162 124.284896851 82.8574066162 124.285598755 82.8574066162 hstem
          cntrmask 11100000
          301.599609375 331.428710938 rmoveto
          -26 callsubr
          365.400390625 82.857421875 rmoveto
          -26 callsubr
          -124.28515625 vmoveto
          -37 callsubr
          497.142578125 vmoveto
          -37 callsubr
          endchar
        </CharString>
        <CharString name="uni2633">
          41.4286956787 82.8574066162 124.284896851 82.8574066162 124.285598755 82.8574066162 hstem
          58 243.600006104 121.799987793 243.600006104 vstem
          cntrmask 11100000
          301.599609375 331.428710938 rmoveto
          -26 callsubr
          365.400390625 82.857421875 rmoveto
          -26 callsubr
          -124.28515625 vmoveto
          -37 callsubr
          -365.400390625 497.142578125 rmoveto
          -26 callsubr
          365.400390625 82.857421875 rmoveto
          -26 callsubr
          endchar
        </CharString>
        <CharString name="uni2634">
          41.4286956787 82.8574066162 124.284896851 82.8574066162 124.285598755 82.8574066162 hstem
          cntrmask 11100000
          hintmask 00000000
          667 248.571289062 rmoveto
          -25 callsubr
          -365.400390625 -290 rmoveto
          -24 callsubr
          365.400390625 -82.857421875 rmoveto
          -24 callsubr
          331.427734375 vmoveto
          -25 callsubr
          endchar
        </CharString>
        <CharString name="uni2635">
          41.4286956787 82.8574066162 124.284896851 82.8574066162 124.285598755 82.8574066162 hstem
          58 243.600006104 121.799987793 243.600006104 vstem
          cntrmask 11100000
          667 331.428710938 rmoveto
          -37 callsubr
          -365.400390625 290 rmoveto
          -26 callsubr
          365.400390625 82.857421875 rmoveto
          -26 callsubr
          -365.400390625 -331.427734375 rmoveto
          -26 callsubr
          365.400390625 82.857421875 rmoveto
          -26 callsubr
          endchar
        </CharString>
        <CharString name="uni2636">
          41.4286956787 82.8574066162 124.284896851 82.8574066162 124.285598755 82.8574066162 hstem
          58 243.600006104 121.799987793 243.600006104 vstem
          cntrmask 11100000
          hintmask 00000000
          301.599609375 248.571289062 rmoveto
          -24 callsubr
          365.400390625 -82.857421875 rmoveto
          -24 callsubr
          124.28515625 vmoveto
          -25 callsubr
          -365.400390625 -497.142578125 rmoveto
          -24 callsubr
          365.400390625 -82.857421875 rmoveto
          -24 callsubr
          endchar
        </CharString>
        <CharString name="uni2637">
          41.4286956787 82.8574066162 124.284896851 82.8574066162 124.285598755 82.8574066162 hstem
          58 243.600006104 121.799987793 243.600006104 vstem
          cntrmask 11100000
          301.599609375 331.428710938 rmoveto
          -26 callsubr
          365.400390625 82.857421875 rmoveto
          -26 callsubr
          -365.400390625 290 rmoveto
          -26 callsubr
          365.400390625 82.857421875 rmoveto
          -26 callsubr
          -365.400390625 -331.427734375 rmoveto
          -26 callsubr
          365.400390625 82.857421875 rmoveto
          -26 callsubr
          endchar
        </CharString>
        <CharString name="uni268C">
          103.570999146 124.285995483 124.286010742 124.285995483 hstem
          667 352.142578125 rmoveto
          -23 callsubr
          609 -248.571289062 rmoveto
          -23 callsubr
          endchar
        </CharString>
        <CharString name="uni268D">
          103.570999146 124.285995483 124.286010742 124.285995483 hstem
          301.599609375 476.428710938 rmoveto
          -22 callsubr
          365.400390625 124.286132812 rmoveto
          -22 callsubr
          -124.28515625 vmoveto
          -609 -124.286132812 609 hlineto
          endchar
        </CharString>
        <CharString name="uni268E">
          103.570999146 124.285995483 124.286010742 124.285995483 hstem
          hintmask 00000000
          301.599609375 103.571289062 rmoveto
          -21 callsubr
          365.400390625 -124.286132812 rmoveto
          -21 callsubr
          124.28515625 vmoveto
          -609 124.286132812 609 hlineto
          endchar
        </CharString>
        <CharString name="uni268F">
          103.570999146 124.285995483 124.286010742 124.285995483 hstem
          58 243.600006104 121.799987793 243.600006104 vstem
          301.599609375 103.571289062 rmoveto
          -20 callsubr
          609 0 rmoveto
          -20 callsubr
          -121.80078125 248.571289062 rmoveto
          -20 callsubr
          609 hmoveto
          -20 callsubr
          endchar
        </CharString>
        <CharString name="uni2690">
          21 -21 21 -21 165.714996338 82.8574066162 248.570602417 82.8574066162 hstemhm
          58 81.1992034912 446.601791382 81.1992034912 hintmask 10111100
          58 580 rmoveto
          -19 callsubr
          -527.80078125 -82.857421875 rmoveto
          446.6015625 -248.5703125 -446.6015625 hlineto
          endchar
        </CharString>
        <CharString name="uni2691">
          21 -21 21 -21 165.714996338 414.285003662 hstemhm
          58 81.1992034912 hintmask 10110000
          58 580 rmoveto
          -19 callsubr
          endchar
        </CharString>
        <CharString name="uni26EB">
          21 -21 21 -21 331.427993774 82.8574066162 82.8576049805 82.8574066162 hstemhm
          58 81.1992034912 81.2007904053 81.1992034912 121.800796509 81.1992034912 81.2017974854 81.1992034912 hintmask 10111111
          220.400390625 580 rmoveto
          -165.71484375 -162.400390625 -414.28515625 81.19921875 331.427734375 162.400390625 165.71484375 121.80078125 -165.71484375 162.400390625 -331.427734375 81.19921875 414.28515625 -162.400390625 165.71484375 vlineto
          endchar
        </CharString>
        <CharString name="uni26F0">
          21 -21 21 -21 580 -20 20 -20 hstemhm
          hintmask 10100000
          423.400390625 580 rmoveto
          -121.80078125 -241.956054688 -81.19921875 76.2421875 -162.400390625 -414.286132812 609 0 rlineto
          endchar
        </CharString>
        <CharString name="uni26F6">
          0 192.072006226 -192.072006226 82.8574066162 305.070587158 192.072006226 -82.8569946289 82.8574066162 hstemhm
          58 203 -203 81.1992034912 324.800796509 203 -81.199005127 81.1992034912 hintmask 10000001
          585.80078125 192.072265625 rmoveto
          hintmask 01000001
          -109.21484375 vlineto
          hintmask 01000010
          -121.80078125 -82.857421875 hlineto
          hintmask 10000010
          162.400390625 hlineto
          22.41015625 18.189453125 18.5595703125 22.8681640625 hvcurveto
          hintmask 01000010
          0 41.4296875 rlineto
          hintmask 10000001
          109.21484375 vlineto
          hintmask 00010010
          -203 387.927734375 rmoveto
          -82.857421875 vlineto
          hintmask 00010001
          121.80078125 hlineto
          hintmask 00100001
          -18 callsubr
          hintmask 00010010
          0 109.21484375 0 41.4296875 rlineto
          hintmask 00100010
          22.8681640625 -18.189453125 18.5595703125 -22.41015625 vhcurveto
          -527.80078125 hmoveto
          hintmask 00011000
          -22.41015625 -18.189453125 -18.5595703125 -22.8681640625 hvcurveto
          0 -41.4296875 rlineto
          hintmask 00100100
          -18 callsubr
          hintmask 00010100
          109.21484375 vlineto
          hintmask 00011000
          121.80078125 82.857421875 hlineto
          hintmask 10000100
          -203 -387.927734375 rmoveto
          hintmask 01001000
          0 -109.21484375 0 -41.4296875 rlineto
          hintmask 10001000
          -22.8681640625 18.189453125 -18.5595703125 22.41015625 vhcurveto
          hintmask 01001000
          162.400390625 82.857421875 hlineto
          hintmask 01000100
          -121.80078125 hlineto
          hintmask 10000100
          109.21484375 vlineto
          endchar
        </CharString>
        <CharString name="uni26FF">
          21 -21 21 -21 165.714996338 82.8574066162 82.8555908203 82.8574066162 82.8576049805 82.8574066162 hstemhm
          58 81.1992034912 446.601791382 81.1992034912 hintmask 10111110
          58 580 rmoveto
          -19 callsubr
          -527.80078125 -82.857421875 rmoveto
          446.6015625 -82.857421875 -446.6015625 hlineto
          -82.857421875 vmoveto
          446.6015625 -82.85546875 -446.6015625 hlineto
          endchar
        </CharString>
        <CharString name="uni2719">
          0 82.8574066162 82.3765869141 92.6679992676 82.8560028076 73.0469055176 83.338104248 82.8574066162 hstem
          58 81.1992034912 101.499801636 81.2012023926 81.199798584 81.2012023926 101.499786377 81.1992034912 vstem
          240.69921875 580 rmoveto
          -17 callsubr
          -162.400390625 -82.857421875 rmoveto
          81.19921875 -156.384765625 182.701171875 -82.85546875 -182.701171875 -175.044921875 -81.19921875 175.044921875 -182.701171875 82.85546875 182.701171875 hlineto
          endchar
        </CharString>
        <CharString name="uni271A">
          21 -21 21 -21 165.23399353 248.570007324 166.195999146 -20 20 -20 hstemhm
          240.699005127 243.602005005 hintmask 10110100
          240.69921875 580 rmoveto
          -17 callsubr
          endchar
        </CharString>
        <CharString name="uni271B">
          0 217.5 -72.5 72.5 145 217.5 -217.5 72.5 hstemhm
          72.5 217.5 -72.5 72.5 145 217.5 -217.5 72.5 hintmask 00100100
          217.5 580 rmoveto
          hintmask 00010100
          -145 vlineto
          hintmask 00011000
          -145 -72.5 hlineto
          hintmask 00101000
          217.5 hlineto
          hintmask 00100100
          217.5 vlineto
          hintmask 00100001
          145 hmoveto
          hintmask 00100010
          -217.5 vlineto
          hintmask 00010010
          217.5 72.5 hlineto
          hintmask 00010001
          -145 hlineto
          hintmask 00100001
          145 vlineto
          hintmask 01001000
          -435 -362.5 rmoveto
          -72.5 vlineto
          hintmask 01000100
          145 hlineto
          hintmask 10000100
          -145 72.5 vlineto
          hintmask 10001000
          217.5 vlineto
          hintmask 10000010
          145 hmoveto
          hintmask 10000001
          -217.5 72.5 vlineto
          hintmask 01000001
          145 vlineto
          hintmask 01000010
          145 72.5 hlineto
          endchar
        </CharString>
        <CharString name="uni271C">
          21 -21 21 -21 126.875 18.125 72.5 145 72.5 18.125 126.875 -20 20 -20 hstemhm
          199.375 18.125 72.5 145 72.5 18.125 cntrmask 0000000111000000
          hintmask 0011110111000000
          199.375 580 rmoveto
          -126.875 -126.875 -18.125 145 145 vlineto
          72.5 hmoveto
          -217.5 -217.5 -145 217.5 vlineto
          hintmask 1011110111000000
          -217.5 145 217.5 217.5 145 -217.5 217.5 vlineto
          72.5 hmoveto
          -145 145 18.125 -126.875 126.875 vlineto
          -453.125 -435 rmoveto
          -18.125 126.875 -126.875 18.125 145 vlineto
          290 hmoveto
          -145 18.125 126.875 126.875 18.125 vlineto
          endchar
        </CharString>
        <CharString name="uni271D">
          21 -21 21 -21 331.427993774 82.8574066162 165.714599609 -20 20 -20 hstemhm
          321.899993896 81.1992034912 hintmask 10110100
          321.900390625 580 rmoveto
          -165.71484375 -162.400390625 -82.857421875 162.400390625 -331.427734375 81.19921875 331.427734375 162.400390625 82.857421875 -162.400390625 165.71484375 vlineto
          endchar
        </CharString>
        <CharString name="uni271F">
          0 82.8574066162 165.714599609 248.570007324 -82.8570098877 165.714996338 -82.8569946289 82.8574066162 hstemhm
          159.5 81.1992034912 -0.000198364257812 81.2012023926 81.199798584 81.1992034912 -0.000213623046875 81.2012023926 hintmask 10100100
          240.69921875 580 rmoveto
          hintmask 11000100
          -82.857421875 vlineto
          hintmask 11001000
          -81.19921875 -248.5703125 hlineto
          hintmask 11000101
          81.19921875 -248.572265625 243.599609375 hlineto
          hintmask 11000010
          248.572265625 vlineto
          hintmask 11000101
          81.201171875 248.5703125 -81.201171875 hlineto
          hintmask 10100101
          82.857421875 vlineto
          hintmask 10010110
          -162.3984375 -82.857421875 rmoveto
          81.19921875 hlineto
          hintmask 10100010
          -82.857421875 vlineto
          hintmask 10100001
          81.19921875 -82.857421875 hlineto
          hintmask 10100110
          -81.19921875 -248.5703125 -81.19921875 248.5703125 hlineto
          hintmask 10101000
          -81.201171875 82.857421875 hlineto
          hintmask 10100110
          81.201171875 hlineto
          endchar
        </CharString>
        <CharString name="uni2779">
          0 96.6660003662 386.667999268 96.6660003662 hstem
          439.833999634 44.4647979736 81.2012023926 101.5 vstem
          362.49609375 580 rmoveto
          -16 callsubr
          -138.873046875 -96.666015625 rmoveto
          -15 callsubr
          endchar
        </CharString>
        <CharString name="uni277C">
          0 96.6660003662 386.667999268 96.6660003662 hstem
          362.49609375 580 rmoveto
          -16 callsubr
          -202.99609375 -96.666015625 rmoveto
          -14 callsubr
          endchar
        </CharString>
        <CharString name="uni278D">
          0 96.6660003662 386.667999268 96.6660003662 hstem
          439.833999634 44.4647979736 81.2012023926 101.5 vstem
          362.49609375 580 rmoveto
          -16 callsubr
          -138.873046875 -96.666015625 rmoveto
          -15 callsubr
          endchar
        </CharString>
        <CharString name="uni2790">
          0 96.6660003662 386.667999268 96.6660003662 hstem
          362.49609375 580 rmoveto
          -16 callsubr
          -202.99609375 -96.666015625 rmoveto
          -14 callsubr
          endchar
        </CharString>
        <CharString name="uni29E9">
          21 -21 21 -21 331.427993774 82.8574066162 82.8576049805 82.8574066162 hstemhm
          139.199005127 81.1992034912 284.201797485 81.1992034912 hintmask 10111100
          58 580 rmoveto
          -82.857421875 81.19921875 -497.142578125 81.19921875 331.427734375 284.201171875 -331.427734375 81.19921875 497.142578125 81.201171875 82.857421875 vlineto
          -446.6015625 -82.857421875 rmoveto
          284.201171875 -82.857421875 -284.201171875 hlineto
          endchar
        </CharString>
        <CharString name="uniFF01">
          0 82.8574066162 497.142593384 -20 hstem
          321.899993896 81.1992034912 vstem
          362.5 82.857421875 rmoveto
          -107 callsubr
          -40.599609375 497.142578125 rmoveto
          -106 callsubr
          endchar
        </CharString>
        <CharString name="uniFF02">
          414.285995483 165.714004517 hstem
          240.699996948 81.2001953125 81.1998138428 81.2001953125 vstem
          484.299804688 580 rmoveto
          -105 callsubr
          -162.399414062 165.713867188 rmoveto
          -105 callsubr
          endchar
        </CharString>
        <CharString name="uniFF07">
          414.285995483 165.714004517 hstem
          321.899993896 81.1992034912 vstem
          403.099609375 580 rmoveto
          -104 callsubr
          endchar
        </CharString>
        <CharString name="uniFF0B">
          21 -21 165.714996338 82.8574066162 hstem
          321.899993896 81.1992034912 vstem
          321.900390625 414.28515625 rmoveto
          -103 callsubr
          endchar
        </CharString>
        <CharString name="uniFF0D">
          165.714004517 82.8574066162 hstem
          565.5 248.571289062 rmoveto
          -102 callsubr
          endchar
        </CharString>
        <CharString name="uniFF0E">
          0.0009765625 82.8574066162 hstem
          321.899993896 81.1992034912 vstem
          362.5 82.8583984375 rmoveto
          -101 callsubr
          endchar
        </CharString>
        <CharString name="uniFF11">
          21 -21 580 -20 hstem
          159.5 406 vstem
          443.69921875 580 rmoveto
          -100 callsubr
          endchar
        </CharString>
        <CharString name="uniFF14">
          0 143.619003296 -113.238098145 82.8574066162 466.761688232 -20 hstemhm
          545.199005127 121.800994873 hintmask 01110000
          154.18359375 580 rmoveto
          -99 callsubr
          hintmask 10010000
          -98 callsubr
          hintmask 01110000
          -97 callsubr
          endchar
        </CharString>
        <CharString name="uniFF17">
          21 -21 497.143005371 82.8574066162 hstem
          58 580 rmoveto
          -96 callsubr
          endchar
        </CharString>
        <CharString name="uniFF1A">
          0.0009765625 82.8574066162 248.570617676 82.8574066162 hstem
          321.899993896 81.1992034912 vstem
          362.5 82.8583984375 rmoveto
          -95 callsubr
          331.427734375 vmoveto
          -107 callsubr
          endchar
        </CharString>
        <CharString name="uniFF1D">
          82.8574066162 82.8563995361 82.8571929932 82.8574066162 hstem
          565.5 331.428710938 rmoveto
          -102 callsubr
          -82.857421875 vmoveto
          -94 callsubr
          endchar
        </CharString>
        <CharString name="uniFF21">
          21 -21 30.3809051514 82.8574066162 466.761688232 -20 hstem
          159.5 580 rmoveto
          -93 callsubr
          -365.400390625 -231.998046875 rmoveto
          -92 callsubr
          endchar
        </CharString>
        <CharString name="uniFF22">
          0 103.037002563 165.714996338 82.8574066162 145.533599854 82.8574066162 hstemhm
          58 406 81.199005127 101.197006226 -101.197006226 121.800994873 hintmask 11110100
          58 580 rmoveto
          -91 callsubr
          hintmask 11111000
          -90 callsubr
          -82.857421875 vmoveto
          -89 callsubr
          -82.857421875 vmoveto
          hintmask 11110100
          -88 callsubr
          endchar
        </CharString>
        <CharString name="uniFF23">
          508.979003906 87.5937957764 hstem
          58 406 vstem
          220.400390625 596.572265625 rmoveto
          -87 callsubr
          endchar
        </CharString>
        <CharString name="uniFF24">
          21 -21 497.143005371 82.8574066162 hstem
          58 406 81.199005127 121.800994873 vstem
          58 580 rmoveto
          -86 callsubr
          -40.599609375 -82.857421875 rmoveto
          -85 callsubr
          endchar
        </CharString>
        <CharString name="uniFF25">
          0 82.8574066162 248.570587158 82.8574066162 82.8576049805 82.8574066162 hstem
          58 406 vstem
          58 580 rmoveto
          -84 callsubr
          endchar
        </CharString>
        <CharString name="uniFF26">
          21 -21 331.427993774 82.8574066162 82.8576049805 82.8574066162 hstem
          58 406 vstem
          58 580 rmoveto
          -83 callsubr
          endchar
        </CharString>
        <CharString name="uniFF27">
          21 -21 508.979003906 87.5937957764 hstem
          58 406 46.6909942627 156.309005737 vstem
          220.400390625 596.572265625 rmoveto
          -82 callsubr
          endchar
        </CharString>
        <CharString name="uniFF28">
          21 -21 331.427993774 82.8574066162 165.714599609 -20 hstem
          58 406 81.199005127 121.800994873 vstem
          58 580 rmoveto
          -81 callsubr
          endchar
        </CharString>
        <CharString name="uniFF29">
          21 -21 580 -20 hstem
          159.5 406 vstem
          159.5 580 rmoveto
          -80 callsubr
          endchar
        </CharString>
        <CharString name="uniFF2A">
          580 -20 hstem
          58 81.2012023926 121.798797607 406 vstem
          261 580 rmoveto
          -79 callsubr
          endchar
        </CharString>
        <CharString name="uniFF2B">
          21 -21 580 -20 hstem
          58 580 rmoveto
          -78 callsubr
          endchar
        </CharString>
        <CharString name="uniFF2C">
          0 82.8574066162 497.142593384 -20 hstem
          58 406 vstem
          58 580 rmoveto
          -77 callsubr
          endchar
        </CharString>
        <CharString name="uniFF2D">
          21 -21 580 -20 hstem
          58 406 81.199005127 121.800994873 vstem
          58 580 rmoveto
          -76 callsubr
          endchar
        </CharString>
        <CharString name="uniFF2E">
          21 -21 580 -20 hstem
          58 406 81.199005127 121.800994873 vstem
          58 580 rmoveto
          -75 callsubr
          endchar
        </CharString>
        <CharString name="uniFF2F">
          -16.5722961426 613.145004272 -87.5937042236 87.5937957764 hstemhm
          545.199005127 121.800994873 hintmask 10100000
          220.400390625 596.572265625 rmoveto
          -74 callsubr
          hintmask 01100000
          -40.599609375 -87.59375 rmoveto
          -73 callsubr
          endchar
        </CharString>
        <CharString name="uniFF30">
          21 -21 497.143005371 82.8574066162 hstem
          545.201004028 121.798995972 vstem
          58 580 rmoveto
          -72 callsubr
          -40.599609375 -82.857421875 rmoveto
          -71 callsubr
          endchar
        </CharString>
        <CharString name="uniFF31">
          21 -21 513.714004517 82.8574066162 hstem
          545.199005127 121.800994873 vstem
          220.400390625 596.571289062 rmoveto
          -70 callsubr
          -40.599609375 -82.857421875 rmoveto
          -69 callsubr
          endchar
        </CharString>
        <CharString name="uniFF32">
          21 -21 497.145004272 82.8554992676 hstem
          545.199005127 121.800994873 vstem
          58 580 rmoveto
          -68 callsubr
          -40.599609375 -82.85546875 rmoveto
          -67 callsubr
          endchar
        </CharString>
        <CharString name="uniFF34">
          21 -21 497.143005371 82.8574066162 hstem
          159.5 406 vstem
          58 580 rmoveto
          -66 callsubr
          endchar
        </CharString>
        <CharString name="uniFF35">
          580 -20 hstem
          58 406 81.2010040283 121.798995972 vstem
          58 580 rmoveto
          -65 callsubr
          endchar
        </CharString>
        <CharString name="uniFF36">
          21 -21 580 -20 hstem
          58 580 rmoveto
          -64 callsubr
          endchar
        </CharString>
        <CharString name="uniFF37">
          21 -21 580 -20 hstem
          484.300994873 81.1992034912 vstem
          580 vmoveto
          -63 callsubr
          endchar
        </CharString>
        <CharString name="uniFF38">
          21 -21 580 -20 hstem
          58 580 rmoveto
          -62 callsubr
          endchar
        </CharString>
        <CharString name="uniFF39">
          21 -21 580 -20 hstem
          159.5 406 vstem
          58 580 rmoveto
          -61 callsubr
          endchar
        </CharString>
        <CharString name="uniFF3A">
          0 82.8574066162 414.285598755 82.8574066162 hstem
          58 580 rmoveto
          -60 callsubr
          endchar
        </CharString>
        <CharString name="uniFF3E">
          583.845993042 136.154006958 hstem
          240.699996948 243.600006104 vstem
          362.5 720 rmoveto
          -59 callsubr
          endchar
        </CharString>
        <CharString name="uniFF3F">
          -140 82.8574066162 hstem
          725 -57.142578125 rmoveto
          -58 callsubr
          endchar
        </CharString>
        <CharString name="uniFF40">
          583.845001221 136.154998779 hstem
          301.600997925 121.800003052 vstem
          423.400390625 670.00390625 rmoveto
          -57 callsubr
          endchar
        </CharString>
        <CharString name="uniFF41">
          21 -21 30.3809051514 82.8574066162 466.761688232 -20 hstem
          159.5 580 rmoveto
          -93 callsubr
          -365.400390625 -231.998046875 rmoveto
          -92 callsubr
          endchar
        </CharString>
        <CharString name="uniFF42">
          0 103.037002563 165.714996338 82.8574066162 145.533599854 82.8574066162 hstemhm
          58 406 81.199005127 101.197006226 -101.197006226 121.800994873 hintmask 11110100
          58 580 rmoveto
          -91 callsubr
          hintmask 11111000
          -90 callsubr
          -82.857421875 vmoveto
          -89 callsubr
          -82.857421875 vmoveto
          hintmask 11110100
          -88 callsubr
          endchar
        </CharString>
        <CharString name="uniFF43">
          508.979003906 87.5937957764 hstem
          58 406 vstem
          220.400390625 596.572265625 rmoveto
          -87 callsubr
          endchar
        </CharString>
        <CharString name="uniFF44">
          21 -21 497.143005371 82.8574066162 hstem
          58 406 81.199005127 121.800994873 vstem
          58 580 rmoveto
          -86 callsubr
          -40.599609375 -82.857421875 rmoveto
          -85 callsubr
          endchar
        </CharString>
        <CharString name="uniFF45">
          0 82.8574066162 248.570587158 82.8574066162 82.8576049805 82.8574066162 hstem
          58 406 vstem
          58 580 rmoveto
          -84 callsubr
          endchar
        </CharString>
        <CharString name="uniFF46">
          21 -21 331.427993774 82.8574066162 82.8576049805 82.8574066162 hstem
          58 406 vstem
          58 580 rmoveto
          -83 callsubr
          endchar
        </CharString>
        <CharString name="uniFF47">
          21 -21 508.979003906 87.5937957764 hstem
          58 406 46.6909942627 156.309005737 vstem
          220.400390625 596.572265625 rmoveto
          -82 callsubr
          endchar
        </CharString>
        <CharString name="uniFF48">
          21 -21 331.427993774 82.8574066162 165.714599609 -20 hstem
          58 406 81.199005127 121.800994873 vstem
          58 580 rmoveto
          -81 callsubr
          endchar
        </CharString>
        <CharString name="uniFF49">
          21 -21 580 -20 hstem
          159.5 406 vstem
          159.5 580 rmoveto
          -80 callsubr
          endchar
        </CharString>
        <CharString name="uniFF4A">
          580 -20 hstem
          58 81.2012023926 121.798797607 406 vstem
          261 580 rmoveto
          -79 callsubr
          endchar
        </CharString>
        <CharString name="uniFF4B">
          21 -21 580 -20 hstem
          58 580 rmoveto
          -78 callsubr
          endchar
        </CharString>
        <CharString name="uniFF4C">
          0 82.8574066162 497.142593384 -20 hstem
          58 406 vstem
          58 580 rmoveto
          -77 callsubr
          endchar
        </CharString>
        <CharString name="uniFF4D">
          21 -21 580 -20 hstem
          58 406 81.199005127 121.800994873 vstem
          58 580 rmoveto
          -76 callsubr
          endchar
        </CharString>
        <CharString name="uniFF4E">
          21 -21 580 -20 hstem
          58 406 81.199005127 121.800994873 vstem
          58 580 rmoveto
          -75 callsubr
          endchar
        </CharString>
        <CharString name="uniFF4F">
          -16.5722961426 613.145004272 -87.5937042236 87.5937957764 hstemhm
          545.199005127 121.800994873 hintmask 10100000
          220.400390625 596.572265625 rmoveto
          -74 callsubr
          hintmask 01100000
          -40.599609375 -87.59375 rmoveto
          -73 callsubr
          endchar
        </CharString>
        <CharString name="uniFF50">
          21 -21 497.143005371 82.8574066162 hstem
          545.201004028 121.798995972 vstem
          58 580 rmoveto
          -72 callsubr
          -40.599609375 -82.857421875 rmoveto
          -71 callsubr
          endchar
        </CharString>
        <CharString name="uniFF51">
          21 -21 513.714004517 82.8574066162 hstem
          545.199005127 121.800994873 vstem
          220.400390625 596.571289062 rmoveto
          -70 callsubr
          -40.599609375 -82.857421875 rmoveto
          -69 callsubr
          endchar
        </CharString>
        <CharString name="uniFF52">
          21 -21 497.145004272 82.8554992676 hstem
          545.199005127 121.800994873 vstem
          58 580 rmoveto
          -68 callsubr
          -40.599609375 -82.85546875 rmoveto
          -67 callsubr
          endchar
        </CharString>
        <CharString name="uniFF54">
          21 -21 497.143005371 82.8574066162 hstem
          159.5 406 vstem
          58 580 rmoveto
          -66 callsubr
          endchar
        </CharString>
        <CharString name="uniFF55">
          580 -20 hstem
          58 406 81.2010040283 121.798995972 vstem
          58 580 rmoveto
          -65 callsubr
          endchar
        </CharString>
        <CharString name="uniFF56">
          21 -21 580 -20 hstem
          58 580 rmoveto
          -64 callsubr
          endchar
        </CharString>
        <CharString name="uniFF57">
          21 -21 580 -20 hstem
          484.300994873 81.1992034912 vstem
          580 vmoveto
          -63 callsubr
          endchar
        </CharString>
        <CharString name="uniFF58">
          21 -21 580 -20 hstem
          58 580 rmoveto
          -62 callsubr
          endchar
        </CharString>
        <CharString name="uniFF59">
          21 -21 580 -20 hstem
          159.5 406 vstem
          58 580 rmoveto
          -61 callsubr
          endchar
        </CharString>
        <CharString name="uniFF5A">
          0 82.8574066162 414.285598755 82.8574066162 hstem
          58 580 rmoveto
          -60 callsubr
          endchar
        </CharString>
        <CharString name="uniFF5C">
          21 -21 580 -20 hstem
          321.899993896 81.1992034912 vstem
          321.900390625 580 rmoveto
          -56 callsubr
          endchar
        </CharString>
        <CharString name="uniFFE4">
          21 -21 580 -20 hstem
          321.899993896 81.1992034912 vstem
          321.900390625 580 rmoveto
          -54 callsubr
          -81.19921875 -331.428710938 rmoveto
          -54 callsubr
          endchar
        </CharString>
        <CharString name="uniFFE5">
          21 -21 82.8574066162 82.8574066162 82.8571929932 82.8554992676 248.572494507 -20 hstem
          58 580 rmoveto
          -55 callsubr
          endchar
        </CharString>
        <CharString name="uniFFED">
          82.8574066162 414.285003662 hstem
          159.5 406 vstem
          159.5 497.142578125 rmoveto
          -414.28515625 406 414.28515625 vlineto
          endchar
        </CharString>
        <CharString name="upblock">
          290 430 hstem
          725 720 rmoveto
          -725 -430 725 hlineto
          endchar
        </CharString>
        <CharString name="v">
          21 -21 580 -20 hstem
          58 580 rmoveto
          -64 callsubr
          endchar
        </CharString>
        <CharString name="w">
          21 -21 580 -20 hstem
          484.300994873 81.1992034912 vstem
          580 vmoveto
          -63 callsubr
          endchar
        </CharString>
        <CharString name="wdieresis">
          21 -21 580 -20 61.4290008545 82.8574066162 hstemhm
          240.699996948 81.1992034912 81.2028045654 81.1992034912 -0.000213623046875 81.1992034912 hintmask 00111000
          281.299804688 704.286132812 rmoveto
          -53 callsubr
          162.401367188 hmoveto
          -53 callsubr
          hintmask 11000100
          -443.701171875 -124.286132812 rmoveto
          -63 callsubr
          endchar
        </CharString>
        <CharString name="x">
          21 -21 580 -20 hstem
          58 580 rmoveto
          -62 callsubr
          endchar
        </CharString>
        <CharString name="y">
          21 -21 580 -20 hstem
          159.5 406 vstem
          58 580 rmoveto
          -61 callsubr
          endchar
        </CharString>
        <CharString name="ydieresis">
          21 -21 580 -20 61.4290008545 82.8574066162 hstemhm
          159.5 406 -324.800003052 81.1992034912 81.2028045654 81.1992034912 hintmask 00101100
          281.299804688 704.286132812 rmoveto
          -53 callsubr
          162.401367188 hmoveto
          -53 callsubr
          hintmask 11010000
          -385.701171875 -124.286132812 rmoveto
          -61 callsubr
          endchar
        </CharString>
        <CharString name="yen">
          21 -21 21 -21 82.8574066162 82.8574066162 82.8571929932 82.8554992676 248.572494507 -20 20 -20 hstemhm
          hintmask 10111000
          58 580 rmoveto
          -55 callsubr
          endchar
        </CharString>
        <CharString name="z">
          0 82.8574066162 414.285598755 82.8574066162 hstem
          58 580 rmoveto
          -60 callsubr
          endchar
        </CharString>
        <CharString name="zdotaccent">
          0 82.8574066162 414.285598755 82.8574066162 41.4285888672 82.8574066162 hstem
          321.899993896 81.1992034912 vstem
          362.5 704.286132812 rmoveto
          -50 callsubr
          -304.5 -124.286132812 rmoveto
          -60 callsubr
          endchar
        </CharString>
</ttFont>
